<?xml version="1.0" encoding="utf-8" standalone="no"?>
<!DOCTYPE svg PUBLIC "-//W3C//DTD SVG 1.1//EN"
  "http://www.w3.org/Graphics/SVG/1.1/DTD/svg11.dtd">
<svg xmlns:xlink="http://www.w3.org/1999/xlink" width="486.769687pt" height="384.831875pt" viewBox="0 0 486.769687 384.831875" xmlns="http://www.w3.org/2000/svg" version="1.1">
 <metadata>
  <rdf:RDF xmlns:dc="http://purl.org/dc/elements/1.1/" xmlns:cc="http://creativecommons.org/ns#" xmlns:rdf="http://www.w3.org/1999/02/22-rdf-syntax-ns#">
   <cc:Work>
    <dc:type rdf:resource="http://purl.org/dc/dcmitype/StillImage"/>
    <dc:date>2023-04-13T02:28:59.308693</dc:date>
    <dc:format>image/svg+xml</dc:format>
    <dc:creator>
     <cc:Agent>
      <dc:title>Matplotlib v3.7.1, https://matplotlib.org/</dc:title>
     </cc:Agent>
    </dc:creator>
   </cc:Work>
  </rdf:RDF>
 </metadata>
 <defs>
  <style type="text/css">*{stroke-linejoin: round; stroke-linecap: butt}</style>
 </defs>
 <g id="figure_1">
  <g id="patch_1">
   <path d="M 0 384.831875 
L 486.769687 384.831875 
L 486.769687 0 
L 0 0 
L 0 384.831875 
z
" style="fill: none"/>
  </g>
  <g id="axes_1">
   <g id="patch_2">
    <path d="M 33.169688 358.518125 
L 479.569687 358.518125 
L 479.569687 25.878125 
L 33.169688 25.878125 
L 33.169688 358.518125 
z
" style="fill: none"/>
   </g>
   <g id="patch_3">
    <path d="M 106.09642 358.518125 
L 106.09642 25.878125 
L 406.642955 25.878125 
L 406.642955 358.518125 
z
" clip-path="url(#p3275be5b49)" style="opacity: 0.2"/>
   </g>
   <g id="matplotlib.axis_1">
    <g id="xtick_1">
     <g id="line2d_1">
      <path d="M 33.169709 358.518125 
L 33.169709 25.878125 
" clip-path="url(#p3275be5b49)" style="fill: none; stroke: #b0b0b0; stroke-width: 0.8; stroke-linecap: square"/>
     </g>
     <g id="line2d_2">
      <defs>
       <path id="m7aef702c8a" d="M 0 0 
L 0 -3.5 
" style="stroke: #000000; stroke-width: 0.8"/>
      </defs>
      <g>
       <use xlink:href="#m7aef702c8a" x="33.169709" y="358.518125" style="stroke: #000000; stroke-width: 0.8"/>
      </g>
     </g>
     <g id="text_1">
      <!-- 15 -->
      <g transform="translate(29.352209 366.577187) scale(0.06 -0.06)">
       <defs>
        <path id="DejaVuSans-31" d="M 794 531 
L 1825 531 
L 1825 4091 
L 703 3866 
L 703 4441 
L 1819 4666 
L 2450 4666 
L 2450 531 
L 3481 531 
L 3481 0 
L 794 0 
L 794 531 
z
" transform="scale(0.015625)"/>
        <path id="DejaVuSans-35" d="M 691 4666 
L 3169 4666 
L 3169 4134 
L 1269 4134 
L 1269 2991 
Q 1406 3038 1543 3061 
Q 1681 3084 1819 3084 
Q 2600 3084 3056 2656 
Q 3513 2228 3513 1497 
Q 3513 744 3044 326 
Q 2575 -91 1722 -91 
Q 1428 -91 1123 -41 
Q 819 9 494 109 
L 494 744 
Q 775 591 1075 516 
Q 1375 441 1709 441 
Q 2250 441 2565 725 
Q 2881 1009 2881 1497 
Q 2881 1984 2565 2268 
Q 2250 2553 1709 2553 
Q 1456 2553 1204 2497 
Q 953 2441 691 2322 
L 691 4666 
z
" transform="scale(0.015625)"/>
       </defs>
       <use xlink:href="#DejaVuSans-31"/>
       <use xlink:href="#DejaVuSans-35" x="63.623047"/>
      </g>
     </g>
    </g>
    <g id="xtick_2">
     <g id="line2d_3">
      <path d="M 77.367731 358.518125 
L 77.367731 25.878125 
" clip-path="url(#p3275be5b49)" style="fill: none; stroke: #b0b0b0; stroke-width: 0.8; stroke-linecap: square"/>
     </g>
     <g id="line2d_4">
      <g>
       <use xlink:href="#m7aef702c8a" x="77.367731" y="358.518125" style="stroke: #000000; stroke-width: 0.8"/>
      </g>
     </g>
     <g id="text_2">
      <!-- 16 -->
      <g transform="translate(73.550231 366.577187) scale(0.06 -0.06)">
       <defs>
        <path id="DejaVuSans-36" d="M 2113 2584 
Q 1688 2584 1439 2293 
Q 1191 2003 1191 1497 
Q 1191 994 1439 701 
Q 1688 409 2113 409 
Q 2538 409 2786 701 
Q 3034 994 3034 1497 
Q 3034 2003 2786 2293 
Q 2538 2584 2113 2584 
z
M 3366 4563 
L 3366 3988 
Q 3128 4100 2886 4159 
Q 2644 4219 2406 4219 
Q 1781 4219 1451 3797 
Q 1122 3375 1075 2522 
Q 1259 2794 1537 2939 
Q 1816 3084 2150 3084 
Q 2853 3084 3261 2657 
Q 3669 2231 3669 1497 
Q 3669 778 3244 343 
Q 2819 -91 2113 -91 
Q 1303 -91 875 529 
Q 447 1150 447 2328 
Q 447 3434 972 4092 
Q 1497 4750 2381 4750 
Q 2619 4750 2861 4703 
Q 3103 4656 3366 4563 
z
" transform="scale(0.015625)"/>
       </defs>
       <use xlink:href="#DejaVuSans-31"/>
       <use xlink:href="#DejaVuSans-36" x="63.623047"/>
      </g>
     </g>
    </g>
    <g id="xtick_3">
     <g id="line2d_5">
      <path d="M 121.565753 358.518125 
L 121.565753 25.878125 
" clip-path="url(#p3275be5b49)" style="fill: none; stroke: #b0b0b0; stroke-width: 0.8; stroke-linecap: square"/>
     </g>
     <g id="line2d_6">
      <g>
       <use xlink:href="#m7aef702c8a" x="121.565753" y="358.518125" style="stroke: #000000; stroke-width: 0.8"/>
      </g>
     </g>
     <g id="text_3">
      <!-- 17 -->
      <g transform="translate(117.748253 366.577187) scale(0.06 -0.06)">
       <defs>
        <path id="DejaVuSans-37" d="M 525 4666 
L 3525 4666 
L 3525 4397 
L 1831 0 
L 1172 0 
L 2766 4134 
L 525 4134 
L 525 4666 
z
" transform="scale(0.015625)"/>
       </defs>
       <use xlink:href="#DejaVuSans-31"/>
       <use xlink:href="#DejaVuSans-37" x="63.623047"/>
      </g>
     </g>
    </g>
    <g id="xtick_4">
     <g id="line2d_7">
      <path d="M 165.763776 358.518125 
L 165.763776 25.878125 
" clip-path="url(#p3275be5b49)" style="fill: none; stroke: #b0b0b0; stroke-width: 0.8; stroke-linecap: square"/>
     </g>
     <g id="line2d_8">
      <g>
       <use xlink:href="#m7aef702c8a" x="165.763776" y="358.518125" style="stroke: #000000; stroke-width: 0.8"/>
      </g>
     </g>
     <g id="text_4">
      <!-- 18 -->
      <g transform="translate(161.946276 366.577187) scale(0.06 -0.06)">
       <defs>
        <path id="DejaVuSans-38" d="M 2034 2216 
Q 1584 2216 1326 1975 
Q 1069 1734 1069 1313 
Q 1069 891 1326 650 
Q 1584 409 2034 409 
Q 2484 409 2743 651 
Q 3003 894 3003 1313 
Q 3003 1734 2745 1975 
Q 2488 2216 2034 2216 
z
M 1403 2484 
Q 997 2584 770 2862 
Q 544 3141 544 3541 
Q 544 4100 942 4425 
Q 1341 4750 2034 4750 
Q 2731 4750 3128 4425 
Q 3525 4100 3525 3541 
Q 3525 3141 3298 2862 
Q 3072 2584 2669 2484 
Q 3125 2378 3379 2068 
Q 3634 1759 3634 1313 
Q 3634 634 3220 271 
Q 2806 -91 2034 -91 
Q 1263 -91 848 271 
Q 434 634 434 1313 
Q 434 1759 690 2068 
Q 947 2378 1403 2484 
z
M 1172 3481 
Q 1172 3119 1398 2916 
Q 1625 2713 2034 2713 
Q 2441 2713 2670 2916 
Q 2900 3119 2900 3481 
Q 2900 3844 2670 4047 
Q 2441 4250 2034 4250 
Q 1625 4250 1398 4047 
Q 1172 3844 1172 3481 
z
" transform="scale(0.015625)"/>
       </defs>
       <use xlink:href="#DejaVuSans-31"/>
       <use xlink:href="#DejaVuSans-38" x="63.623047"/>
      </g>
     </g>
    </g>
    <g id="xtick_5">
     <g id="line2d_9">
      <path d="M 209.961798 358.518125 
L 209.961798 25.878125 
" clip-path="url(#p3275be5b49)" style="fill: none; stroke: #b0b0b0; stroke-width: 0.8; stroke-linecap: square"/>
     </g>
     <g id="line2d_10">
      <g>
       <use xlink:href="#m7aef702c8a" x="209.961798" y="358.518125" style="stroke: #000000; stroke-width: 0.8"/>
      </g>
     </g>
     <g id="text_5">
      <!-- 19 -->
      <g transform="translate(206.144298 366.577187) scale(0.06 -0.06)">
       <defs>
        <path id="DejaVuSans-39" d="M 703 97 
L 703 672 
Q 941 559 1184 500 
Q 1428 441 1663 441 
Q 2288 441 2617 861 
Q 2947 1281 2994 2138 
Q 2813 1869 2534 1725 
Q 2256 1581 1919 1581 
Q 1219 1581 811 2004 
Q 403 2428 403 3163 
Q 403 3881 828 4315 
Q 1253 4750 1959 4750 
Q 2769 4750 3195 4129 
Q 3622 3509 3622 2328 
Q 3622 1225 3098 567 
Q 2575 -91 1691 -91 
Q 1453 -91 1209 -44 
Q 966 3 703 97 
z
M 1959 2075 
Q 2384 2075 2632 2365 
Q 2881 2656 2881 3163 
Q 2881 3666 2632 3958 
Q 2384 4250 1959 4250 
Q 1534 4250 1286 3958 
Q 1038 3666 1038 3163 
Q 1038 2656 1286 2365 
Q 1534 2075 1959 2075 
z
" transform="scale(0.015625)"/>
       </defs>
       <use xlink:href="#DejaVuSans-31"/>
       <use xlink:href="#DejaVuSans-39" x="63.623047"/>
      </g>
     </g>
    </g>
    <g id="xtick_6">
     <g id="line2d_11">
      <path d="M 254.159821 358.518125 
L 254.159821 25.878125 
" clip-path="url(#p3275be5b49)" style="fill: none; stroke: #b0b0b0; stroke-width: 0.8; stroke-linecap: square"/>
     </g>
     <g id="line2d_12">
      <g>
       <use xlink:href="#m7aef702c8a" x="254.159821" y="358.518125" style="stroke: #000000; stroke-width: 0.8"/>
      </g>
     </g>
     <g id="text_6">
      <!-- 20 -->
      <g transform="translate(250.342321 366.577187) scale(0.06 -0.06)">
       <defs>
        <path id="DejaVuSans-32" d="M 1228 531 
L 3431 531 
L 3431 0 
L 469 0 
L 469 531 
Q 828 903 1448 1529 
Q 2069 2156 2228 2338 
Q 2531 2678 2651 2914 
Q 2772 3150 2772 3378 
Q 2772 3750 2511 3984 
Q 2250 4219 1831 4219 
Q 1534 4219 1204 4116 
Q 875 4013 500 3803 
L 500 4441 
Q 881 4594 1212 4672 
Q 1544 4750 1819 4750 
Q 2544 4750 2975 4387 
Q 3406 4025 3406 3419 
Q 3406 3131 3298 2873 
Q 3191 2616 2906 2266 
Q 2828 2175 2409 1742 
Q 1991 1309 1228 531 
z
" transform="scale(0.015625)"/>
        <path id="DejaVuSans-30" d="M 2034 4250 
Q 1547 4250 1301 3770 
Q 1056 3291 1056 2328 
Q 1056 1369 1301 889 
Q 1547 409 2034 409 
Q 2525 409 2770 889 
Q 3016 1369 3016 2328 
Q 3016 3291 2770 3770 
Q 2525 4250 2034 4250 
z
M 2034 4750 
Q 2819 4750 3233 4129 
Q 3647 3509 3647 2328 
Q 3647 1150 3233 529 
Q 2819 -91 2034 -91 
Q 1250 -91 836 529 
Q 422 1150 422 2328 
Q 422 3509 836 4129 
Q 1250 4750 2034 4750 
z
" transform="scale(0.015625)"/>
       </defs>
       <use xlink:href="#DejaVuSans-32"/>
       <use xlink:href="#DejaVuSans-30" x="63.623047"/>
      </g>
     </g>
    </g>
    <g id="xtick_7">
     <g id="line2d_13">
      <path d="M 298.357843 358.518125 
L 298.357843 25.878125 
" clip-path="url(#p3275be5b49)" style="fill: none; stroke: #b0b0b0; stroke-width: 0.8; stroke-linecap: square"/>
     </g>
     <g id="line2d_14">
      <g>
       <use xlink:href="#m7aef702c8a" x="298.357843" y="358.518125" style="stroke: #000000; stroke-width: 0.8"/>
      </g>
     </g>
     <g id="text_7">
      <!-- 21 -->
      <g transform="translate(294.540343 366.577187) scale(0.06 -0.06)">
       <use xlink:href="#DejaVuSans-32"/>
       <use xlink:href="#DejaVuSans-31" x="63.623047"/>
      </g>
     </g>
    </g>
    <g id="xtick_8">
     <g id="line2d_15">
      <path d="M 342.555866 358.518125 
L 342.555866 25.878125 
" clip-path="url(#p3275be5b49)" style="fill: none; stroke: #b0b0b0; stroke-width: 0.8; stroke-linecap: square"/>
     </g>
     <g id="line2d_16">
      <g>
       <use xlink:href="#m7aef702c8a" x="342.555866" y="358.518125" style="stroke: #000000; stroke-width: 0.8"/>
      </g>
     </g>
     <g id="text_8">
      <!-- 22 -->
      <g transform="translate(338.738366 366.577187) scale(0.06 -0.06)">
       <use xlink:href="#DejaVuSans-32"/>
       <use xlink:href="#DejaVuSans-32" x="63.623047"/>
      </g>
     </g>
    </g>
    <g id="xtick_9">
     <g id="line2d_17">
      <path d="M 386.753888 358.518125 
L 386.753888 25.878125 
" clip-path="url(#p3275be5b49)" style="fill: none; stroke: #b0b0b0; stroke-width: 0.8; stroke-linecap: square"/>
     </g>
     <g id="line2d_18">
      <g>
       <use xlink:href="#m7aef702c8a" x="386.753888" y="358.518125" style="stroke: #000000; stroke-width: 0.8"/>
      </g>
     </g>
     <g id="text_9">
      <!-- 23 -->
      <g transform="translate(382.936388 366.577187) scale(0.06 -0.06)">
       <defs>
        <path id="DejaVuSans-33" d="M 2597 2516 
Q 3050 2419 3304 2112 
Q 3559 1806 3559 1356 
Q 3559 666 3084 287 
Q 2609 -91 1734 -91 
Q 1441 -91 1130 -33 
Q 819 25 488 141 
L 488 750 
Q 750 597 1062 519 
Q 1375 441 1716 441 
Q 2309 441 2620 675 
Q 2931 909 2931 1356 
Q 2931 1769 2642 2001 
Q 2353 2234 1838 2234 
L 1294 2234 
L 1294 2753 
L 1863 2753 
Q 2328 2753 2575 2939 
Q 2822 3125 2822 3475 
Q 2822 3834 2567 4026 
Q 2313 4219 1838 4219 
Q 1578 4219 1281 4162 
Q 984 4106 628 3988 
L 628 4550 
Q 988 4650 1302 4700 
Q 1616 4750 1894 4750 
Q 2613 4750 3031 4423 
Q 3450 4097 3450 3541 
Q 3450 3153 3228 2886 
Q 3006 2619 2597 2516 
z
" transform="scale(0.015625)"/>
       </defs>
       <use xlink:href="#DejaVuSans-32"/>
       <use xlink:href="#DejaVuSans-33" x="63.623047"/>
      </g>
     </g>
    </g>
    <g id="xtick_10">
     <g id="line2d_19">
      <path d="M 430.951911 358.518125 
L 430.951911 25.878125 
" clip-path="url(#p3275be5b49)" style="fill: none; stroke: #b0b0b0; stroke-width: 0.8; stroke-linecap: square"/>
     </g>
     <g id="line2d_20">
      <g>
       <use xlink:href="#m7aef702c8a" x="430.951911" y="358.518125" style="stroke: #000000; stroke-width: 0.8"/>
      </g>
     </g>
     <g id="text_10">
      <!-- 00 -->
      <g transform="translate(427.134411 366.577187) scale(0.06 -0.06)">
       <use xlink:href="#DejaVuSans-30"/>
       <use xlink:href="#DejaVuSans-30" x="63.623047"/>
      </g>
     </g>
    </g>
    <g id="xtick_11">
     <g id="line2d_21">
      <path d="M 475.149933 358.518125 
L 475.149933 25.878125 
" clip-path="url(#p3275be5b49)" style="fill: none; stroke: #b0b0b0; stroke-width: 0.8; stroke-linecap: square"/>
     </g>
     <g id="line2d_22">
      <g>
       <use xlink:href="#m7aef702c8a" x="475.149933" y="358.518125" style="stroke: #000000; stroke-width: 0.8"/>
      </g>
     </g>
     <g id="text_11">
      <!-- 01 -->
      <g transform="translate(471.332433 366.577187) scale(0.06 -0.06)">
       <use xlink:href="#DejaVuSans-30"/>
       <use xlink:href="#DejaVuSans-31" x="63.623047"/>
      </g>
     </g>
    </g>
    <g id="text_12">
     <!-- UTC, 2023-04-12 -->
     <g transform="translate(231.081562 376.384062) scale(0.06 -0.06)">
      <defs>
       <path id="DejaVuSans-55" d="M 556 4666 
L 1191 4666 
L 1191 1831 
Q 1191 1081 1462 751 
Q 1734 422 2344 422 
Q 2950 422 3222 751 
Q 3494 1081 3494 1831 
L 3494 4666 
L 4128 4666 
L 4128 1753 
Q 4128 841 3676 375 
Q 3225 -91 2344 -91 
Q 1459 -91 1007 375 
Q 556 841 556 1753 
L 556 4666 
z
" transform="scale(0.015625)"/>
       <path id="DejaVuSans-54" d="M -19 4666 
L 3928 4666 
L 3928 4134 
L 2272 4134 
L 2272 0 
L 1638 0 
L 1638 4134 
L -19 4134 
L -19 4666 
z
" transform="scale(0.015625)"/>
       <path id="DejaVuSans-43" d="M 4122 4306 
L 4122 3641 
Q 3803 3938 3442 4084 
Q 3081 4231 2675 4231 
Q 1875 4231 1450 3742 
Q 1025 3253 1025 2328 
Q 1025 1406 1450 917 
Q 1875 428 2675 428 
Q 3081 428 3442 575 
Q 3803 722 4122 1019 
L 4122 359 
Q 3791 134 3420 21 
Q 3050 -91 2638 -91 
Q 1578 -91 968 557 
Q 359 1206 359 2328 
Q 359 3453 968 4101 
Q 1578 4750 2638 4750 
Q 3056 4750 3426 4639 
Q 3797 4528 4122 4306 
z
" transform="scale(0.015625)"/>
       <path id="DejaVuSans-2c" d="M 750 794 
L 1409 794 
L 1409 256 
L 897 -744 
L 494 -744 
L 750 256 
L 750 794 
z
" transform="scale(0.015625)"/>
       <path id="DejaVuSans-20" transform="scale(0.015625)"/>
       <path id="DejaVuSans-2d" d="M 313 2009 
L 1997 2009 
L 1997 1497 
L 313 1497 
L 313 2009 
z
" transform="scale(0.015625)"/>
       <path id="DejaVuSans-34" d="M 2419 4116 
L 825 1625 
L 2419 1625 
L 2419 4116 
z
M 2253 4666 
L 3047 4666 
L 3047 1625 
L 3713 1625 
L 3713 1100 
L 3047 1100 
L 3047 0 
L 2419 0 
L 2419 1100 
L 313 1100 
L 313 1709 
L 2253 4666 
z
" transform="scale(0.015625)"/>
      </defs>
      <use xlink:href="#DejaVuSans-55"/>
      <use xlink:href="#DejaVuSans-54" x="73.193359"/>
      <use xlink:href="#DejaVuSans-43" x="128.402344"/>
      <use xlink:href="#DejaVuSans-2c" x="198.226562"/>
      <use xlink:href="#DejaVuSans-20" x="230.013672"/>
      <use xlink:href="#DejaVuSans-32" x="261.800781"/>
      <use xlink:href="#DejaVuSans-30" x="325.423828"/>
      <use xlink:href="#DejaVuSans-32" x="389.046875"/>
      <use xlink:href="#DejaVuSans-33" x="452.669922"/>
      <use xlink:href="#DejaVuSans-2d" x="516.292969"/>
      <use xlink:href="#DejaVuSans-30" x="552.376953"/>
      <use xlink:href="#DejaVuSans-34" x="616"/>
      <use xlink:href="#DejaVuSans-2d" x="679.623047"/>
      <use xlink:href="#DejaVuSans-31" x="715.707031"/>
      <use xlink:href="#DejaVuSans-32" x="779.330078"/>
     </g>
    </g>
   </g>
   <g id="matplotlib.axis_2">
    <g id="ytick_1">
     <g id="line2d_23">
      <path d="M 33.169688 358.518125 
L 479.569687 358.518125 
" clip-path="url(#p3275be5b49)" style="fill: none; stroke: #b0b0b0; stroke-width: 0.8; stroke-linecap: square"/>
     </g>
     <g id="line2d_24">
      <defs>
       <path id="m1a152075ad" d="M 0 0 
L 3.5 0 
" style="stroke: #000000; stroke-width: 0.8"/>
      </defs>
      <g>
       <use xlink:href="#m1a152075ad" x="33.169688" y="358.518125" style="stroke: #000000; stroke-width: 0.8"/>
      </g>
     </g>
     <g id="text_13">
      <!-- −20 -->
      <g transform="translate(17.006875 360.797656) scale(0.06 -0.06)">
       <defs>
        <path id="DejaVuSans-2212" d="M 678 2272 
L 4684 2272 
L 4684 1741 
L 678 1741 
L 678 2272 
z
" transform="scale(0.015625)"/>
       </defs>
       <use xlink:href="#DejaVuSans-2212"/>
       <use xlink:href="#DejaVuSans-32" x="83.789062"/>
       <use xlink:href="#DejaVuSans-30" x="147.412109"/>
      </g>
     </g>
    </g>
    <g id="ytick_2">
     <g id="line2d_25">
      <path d="M 33.169688 294.546888 
L 479.569687 294.546888 
" clip-path="url(#p3275be5b49)" style="fill: none; stroke: #b0b0b0; stroke-width: 0.8; stroke-linecap: square"/>
     </g>
     <g id="line2d_26">
      <g>
       <use xlink:href="#m1a152075ad" x="33.169688" y="294.546888" style="stroke: #000000; stroke-width: 0.8"/>
      </g>
     </g>
     <g id="text_14">
      <!-- 0 -->
      <g transform="translate(25.852188 296.826419) scale(0.06 -0.06)">
       <use xlink:href="#DejaVuSans-30"/>
      </g>
     </g>
    </g>
    <g id="ytick_3">
     <g id="line2d_27">
      <path d="M 33.169688 230.57565 
L 479.569687 230.57565 
" clip-path="url(#p3275be5b49)" style="fill: none; stroke: #b0b0b0; stroke-width: 0.8; stroke-linecap: square"/>
     </g>
     <g id="line2d_28">
      <g>
       <use xlink:href="#m1a152075ad" x="33.169688" y="230.57565" style="stroke: #000000; stroke-width: 0.8"/>
      </g>
     </g>
     <g id="text_15">
      <!-- 20 -->
      <g transform="translate(22.034688 232.855181) scale(0.06 -0.06)">
       <use xlink:href="#DejaVuSans-32"/>
       <use xlink:href="#DejaVuSans-30" x="63.623047"/>
      </g>
     </g>
    </g>
    <g id="ytick_4">
     <g id="line2d_29">
      <path d="M 33.169688 166.604413 
L 479.569687 166.604413 
" clip-path="url(#p3275be5b49)" style="fill: none; stroke: #b0b0b0; stroke-width: 0.8; stroke-linecap: square"/>
     </g>
     <g id="line2d_30">
      <g>
       <use xlink:href="#m1a152075ad" x="33.169688" y="166.604413" style="stroke: #000000; stroke-width: 0.8"/>
      </g>
     </g>
     <g id="text_16">
      <!-- 40 -->
      <g transform="translate(22.034688 168.883944) scale(0.06 -0.06)">
       <use xlink:href="#DejaVuSans-34"/>
       <use xlink:href="#DejaVuSans-30" x="63.623047"/>
      </g>
     </g>
    </g>
    <g id="ytick_5">
     <g id="line2d_31">
      <path d="M 33.169688 102.633175 
L 479.569687 102.633175 
" clip-path="url(#p3275be5b49)" style="fill: none; stroke: #b0b0b0; stroke-width: 0.8; stroke-linecap: square"/>
     </g>
     <g id="line2d_32">
      <g>
       <use xlink:href="#m1a152075ad" x="33.169688" y="102.633175" style="stroke: #000000; stroke-width: 0.8"/>
      </g>
     </g>
     <g id="text_17">
      <!-- 60 -->
      <g transform="translate(22.034688 104.912707) scale(0.06 -0.06)">
       <use xlink:href="#DejaVuSans-36"/>
       <use xlink:href="#DejaVuSans-30" x="63.623047"/>
      </g>
     </g>
    </g>
    <g id="ytick_6">
     <g id="line2d_33">
      <path d="M 33.169688 38.661938 
L 479.569687 38.661938 
" clip-path="url(#p3275be5b49)" style="fill: none; stroke: #b0b0b0; stroke-width: 0.8; stroke-linecap: square"/>
     </g>
     <g id="line2d_34">
      <g>
       <use xlink:href="#m1a152075ad" x="33.169688" y="38.661938" style="stroke: #000000; stroke-width: 0.8"/>
      </g>
     </g>
     <g id="text_18">
      <!-- 80 -->
      <g transform="translate(22.034688 40.941469) scale(0.06 -0.06)">
       <use xlink:href="#DejaVuSans-38"/>
       <use xlink:href="#DejaVuSans-30" x="63.623047"/>
      </g>
     </g>
    </g>
    <g id="text_19">
     <!-- Elevation (deg) -->
     <g transform="translate(11.759063 215.082969) rotate(-90) scale(0.06 -0.06)">
      <defs>
       <path id="DejaVuSans-45" d="M 628 4666 
L 3578 4666 
L 3578 4134 
L 1259 4134 
L 1259 2753 
L 3481 2753 
L 3481 2222 
L 1259 2222 
L 1259 531 
L 3634 531 
L 3634 0 
L 628 0 
L 628 4666 
z
" transform="scale(0.015625)"/>
       <path id="DejaVuSans-6c" d="M 603 4863 
L 1178 4863 
L 1178 0 
L 603 0 
L 603 4863 
z
" transform="scale(0.015625)"/>
       <path id="DejaVuSans-65" d="M 3597 1894 
L 3597 1613 
L 953 1613 
Q 991 1019 1311 708 
Q 1631 397 2203 397 
Q 2534 397 2845 478 
Q 3156 559 3463 722 
L 3463 178 
Q 3153 47 2828 -22 
Q 2503 -91 2169 -91 
Q 1331 -91 842 396 
Q 353 884 353 1716 
Q 353 2575 817 3079 
Q 1281 3584 2069 3584 
Q 2775 3584 3186 3129 
Q 3597 2675 3597 1894 
z
M 3022 2063 
Q 3016 2534 2758 2815 
Q 2500 3097 2075 3097 
Q 1594 3097 1305 2825 
Q 1016 2553 972 2059 
L 3022 2063 
z
" transform="scale(0.015625)"/>
       <path id="DejaVuSans-76" d="M 191 3500 
L 800 3500 
L 1894 563 
L 2988 3500 
L 3597 3500 
L 2284 0 
L 1503 0 
L 191 3500 
z
" transform="scale(0.015625)"/>
       <path id="DejaVuSans-61" d="M 2194 1759 
Q 1497 1759 1228 1600 
Q 959 1441 959 1056 
Q 959 750 1161 570 
Q 1363 391 1709 391 
Q 2188 391 2477 730 
Q 2766 1069 2766 1631 
L 2766 1759 
L 2194 1759 
z
M 3341 1997 
L 3341 0 
L 2766 0 
L 2766 531 
Q 2569 213 2275 61 
Q 1981 -91 1556 -91 
Q 1019 -91 701 211 
Q 384 513 384 1019 
Q 384 1609 779 1909 
Q 1175 2209 1959 2209 
L 2766 2209 
L 2766 2266 
Q 2766 2663 2505 2880 
Q 2244 3097 1772 3097 
Q 1472 3097 1187 3025 
Q 903 2953 641 2809 
L 641 3341 
Q 956 3463 1253 3523 
Q 1550 3584 1831 3584 
Q 2591 3584 2966 3190 
Q 3341 2797 3341 1997 
z
" transform="scale(0.015625)"/>
       <path id="DejaVuSans-74" d="M 1172 4494 
L 1172 3500 
L 2356 3500 
L 2356 3053 
L 1172 3053 
L 1172 1153 
Q 1172 725 1289 603 
Q 1406 481 1766 481 
L 2356 481 
L 2356 0 
L 1766 0 
Q 1100 0 847 248 
Q 594 497 594 1153 
L 594 3053 
L 172 3053 
L 172 3500 
L 594 3500 
L 594 4494 
L 1172 4494 
z
" transform="scale(0.015625)"/>
       <path id="DejaVuSans-69" d="M 603 3500 
L 1178 3500 
L 1178 0 
L 603 0 
L 603 3500 
z
M 603 4863 
L 1178 4863 
L 1178 4134 
L 603 4134 
L 603 4863 
z
" transform="scale(0.015625)"/>
       <path id="DejaVuSans-6f" d="M 1959 3097 
Q 1497 3097 1228 2736 
Q 959 2375 959 1747 
Q 959 1119 1226 758 
Q 1494 397 1959 397 
Q 2419 397 2687 759 
Q 2956 1122 2956 1747 
Q 2956 2369 2687 2733 
Q 2419 3097 1959 3097 
z
M 1959 3584 
Q 2709 3584 3137 3096 
Q 3566 2609 3566 1747 
Q 3566 888 3137 398 
Q 2709 -91 1959 -91 
Q 1206 -91 779 398 
Q 353 888 353 1747 
Q 353 2609 779 3096 
Q 1206 3584 1959 3584 
z
" transform="scale(0.015625)"/>
       <path id="DejaVuSans-6e" d="M 3513 2113 
L 3513 0 
L 2938 0 
L 2938 2094 
Q 2938 2591 2744 2837 
Q 2550 3084 2163 3084 
Q 1697 3084 1428 2787 
Q 1159 2491 1159 1978 
L 1159 0 
L 581 0 
L 581 3500 
L 1159 3500 
L 1159 2956 
Q 1366 3272 1645 3428 
Q 1925 3584 2291 3584 
Q 2894 3584 3203 3211 
Q 3513 2838 3513 2113 
z
" transform="scale(0.015625)"/>
       <path id="DejaVuSans-28" d="M 1984 4856 
Q 1566 4138 1362 3434 
Q 1159 2731 1159 2009 
Q 1159 1288 1364 580 
Q 1569 -128 1984 -844 
L 1484 -844 
Q 1016 -109 783 600 
Q 550 1309 550 2009 
Q 550 2706 781 3412 
Q 1013 4119 1484 4856 
L 1984 4856 
z
" transform="scale(0.015625)"/>
       <path id="DejaVuSans-64" d="M 2906 2969 
L 2906 4863 
L 3481 4863 
L 3481 0 
L 2906 0 
L 2906 525 
Q 2725 213 2448 61 
Q 2172 -91 1784 -91 
Q 1150 -91 751 415 
Q 353 922 353 1747 
Q 353 2572 751 3078 
Q 1150 3584 1784 3584 
Q 2172 3584 2448 3432 
Q 2725 3281 2906 2969 
z
M 947 1747 
Q 947 1113 1208 752 
Q 1469 391 1925 391 
Q 2381 391 2643 752 
Q 2906 1113 2906 1747 
Q 2906 2381 2643 2742 
Q 2381 3103 1925 3103 
Q 1469 3103 1208 2742 
Q 947 2381 947 1747 
z
" transform="scale(0.015625)"/>
       <path id="DejaVuSans-67" d="M 2906 1791 
Q 2906 2416 2648 2759 
Q 2391 3103 1925 3103 
Q 1463 3103 1205 2759 
Q 947 2416 947 1791 
Q 947 1169 1205 825 
Q 1463 481 1925 481 
Q 2391 481 2648 825 
Q 2906 1169 2906 1791 
z
M 3481 434 
Q 3481 -459 3084 -895 
Q 2688 -1331 1869 -1331 
Q 1566 -1331 1297 -1286 
Q 1028 -1241 775 -1147 
L 775 -588 
Q 1028 -725 1275 -790 
Q 1522 -856 1778 -856 
Q 2344 -856 2625 -561 
Q 2906 -266 2906 331 
L 2906 616 
Q 2728 306 2450 153 
Q 2172 0 1784 0 
Q 1141 0 747 490 
Q 353 981 353 1791 
Q 353 2603 747 3093 
Q 1141 3584 1784 3584 
Q 2172 3584 2450 3431 
Q 2728 3278 2906 2969 
L 2906 3500 
L 3481 3500 
L 3481 434 
z
" transform="scale(0.015625)"/>
       <path id="DejaVuSans-29" d="M 513 4856 
L 1013 4856 
Q 1481 4119 1714 3412 
Q 1947 2706 1947 2009 
Q 1947 1309 1714 600 
Q 1481 -109 1013 -844 
L 513 -844 
Q 928 -128 1133 580 
Q 1338 1288 1338 2009 
Q 1338 2731 1133 3434 
Q 928 4138 513 4856 
z
" transform="scale(0.015625)"/>
      </defs>
      <use xlink:href="#DejaVuSans-45"/>
      <use xlink:href="#DejaVuSans-6c" x="63.183594"/>
      <use xlink:href="#DejaVuSans-65" x="90.966797"/>
      <use xlink:href="#DejaVuSans-76" x="152.490234"/>
      <use xlink:href="#DejaVuSans-61" x="211.669922"/>
      <use xlink:href="#DejaVuSans-74" x="272.949219"/>
      <use xlink:href="#DejaVuSans-69" x="312.158203"/>
      <use xlink:href="#DejaVuSans-6f" x="339.941406"/>
      <use xlink:href="#DejaVuSans-6e" x="401.123047"/>
      <use xlink:href="#DejaVuSans-20" x="464.501953"/>
      <use xlink:href="#DejaVuSans-28" x="496.289062"/>
      <use xlink:href="#DejaVuSans-64" x="535.302734"/>
      <use xlink:href="#DejaVuSans-65" x="598.779297"/>
      <use xlink:href="#DejaVuSans-67" x="660.302734"/>
      <use xlink:href="#DejaVuSans-29" x="723.779297"/>
     </g>
    </g>
   </g>
   <g id="LineCollection_1">
    <path d="M -1 352.121001 
L 487.769687 352.121001 
" clip-path="url(#p3275be5b49)" style="fill: none; stroke-dasharray: 5.55,2.4; stroke-dashoffset: 0; stroke: #000000; stroke-opacity: 0.5; stroke-width: 1.5"/>
   </g>
   <g id="LineCollection_2">
    <path d="M -1 332.92963 
L 487.769687 332.92963 
" clip-path="url(#p3275be5b49)" style="fill: none; stroke-dasharray: 5.55,2.4; stroke-dashoffset: 0; stroke: #000000; stroke-opacity: 0.2; stroke-width: 1.5"/>
   </g>
   <g id="LineCollection_3">
    <path d="M -1 198.590031 
L 487.769687 198.590031 
" clip-path="url(#p3275be5b49)" style="fill: none; stroke-dasharray: 5.55,2.4; stroke-dashoffset: 0; stroke: #ff0000; stroke-opacity: 0.3; stroke-width: 1.5"/>
   </g>
   <g id="line2d_35">
    <path d="M -1 275.926509 
L 22.120183 289.335058 
L 39.79939 299.348894 
L 55.268697 307.871389 
L 68.528103 314.954646 
L 81.787509 321.795671 
L 95.046915 328.357898 
L 106.09642 333.586411 
L 117.145925 338.573123 
L 128.19543 343.295567 
L 139.244935 347.731113 
L 148.084539 351.057786 
L 156.924143 354.17491 
L 165.763747 357.071228 
L 174.603351 359.735799 
L 183.442955 362.158116 
L 192.282559 364.328235 
L 201.122163 366.236912 
L 209.961767 367.875741 
L 218.801371 369.237283 
L 227.640975 370.3152 
L 236.480579 371.104364 
L 245.320183 371.600954 
L 254.159787 371.802535 
L 262.99939 371.708098 
L 271.838994 371.318089 
L 280.678598 370.634391 
L 289.518202 369.660294 
L 298.357806 368.400426 
L 307.19741 366.860664 
L 316.037014 365.048027 
L 324.876618 362.970555 
L 333.716222 360.637172 
L 342.555826 358.057556 
L 351.39543 355.241996 
L 360.235034 352.201264 
L 369.074638 348.946488 
L 377.914242 345.489045 
L 388.963747 340.899791 
L 400.013252 336.034466 
L 411.062757 330.915589 
L 422.112262 325.565432 
L 435.371668 318.870773 
L 448.631074 311.911623 
L 464.100381 303.506372 
L 479.569687 294.8458 
L 487.769687 290.169654 
L 487.769687 290.169654 
" clip-path="url(#p3275be5b49)" style="fill: none; stroke-dasharray: 9.6,2.4,1.5,2.4; stroke-dashoffset: 0; stroke: #ff0000; stroke-opacity: 0.5; stroke-width: 1.5"/>
   </g>
   <g id="line2d_36">
    <path d="M 217.163594 385.831875 
L 240.900381 372.7055 
L 260.789489 361.9612 
L 278.468697 352.673691 
L 293.938004 344.795135 
L 309.407311 337.186478 
L 322.666717 330.907521 
L 335.926123 324.877297 
L 349.185529 319.119305 
L 360.235034 314.545938 
L 371.284539 310.19162 
L 382.334044 306.069899 
L 393.383549 302.19417 
L 404.433054 298.577575 
L 415.482559 295.232899 
L 426.532064 292.172442 
L 435.371668 289.936593 
L 444.211272 287.895782 
L 453.050876 286.055295 
L 461.89048 284.420017 
L 470.730084 282.99438 
L 479.569687 281.782323 
L 487.769687 280.853314 
L 487.769687 280.853314 
" clip-path="url(#p3275be5b49)" style="fill: none; stroke-dasharray: 9.6,2.4,1.5,2.4; stroke-dashoffset: 0; stroke: #0000ff; stroke-opacity: 0.5; stroke-width: 1.5"/>
   </g>
   <g id="line2d_37">
    <path d="M 109.703004 123.08223 
L 111.912905 123.941108 
L 114.122806 124.796266 
L 116.332707 125.647646 
L 118.542608 126.495188 
L 120.752509 127.338836 
L 122.96241 128.178532 
L 125.172311 129.01422 
L 127.382212 129.845844 
L 129.592113 130.673347 
L 131.802014 131.496674 
L 134.011915 132.315771 
L 136.221816 133.130582 
L 138.431717 133.941054 
L 140.641618 134.747132 
L 142.851519 135.548763 
L 145.06142 136.345894 
L 147.271321 137.138471 
L 149.481222 137.926443 
L 151.691123 138.709757 
L 153.901024 139.488361 
L 156.110925 140.262203 
L 158.320826 141.031233 
L 160.530727 141.795398 
L 162.740628 142.554649 
L 164.950529 143.308935 
L 167.16043 144.058206 
L 169.370331 144.802411 
L 171.580232 145.541501 
L 173.790133 146.275428 
L 176.000034 147.004141 
L 178.209935 147.727593 
L 180.419836 148.445734 
L 182.629737 149.158516 
L 184.839638 149.865892 
L 187.049539 150.567813 
L 189.25944 151.264233 
L 191.469341 151.955104 
L 193.679242 152.640379 
L 195.889143 153.320011 
L 198.099044 153.993955 
L 200.308945 154.662165 
L 202.518846 155.324594 
L 204.728747 155.981196 
L 206.938648 156.631928 
L 209.148549 157.276744 
L 211.35845 157.915598 
L 213.568351 158.548448 
L 215.778252 159.175249 
L 217.988153 159.795957 
L 220.198054 160.410529 
L 222.407955 161.018921 
L 224.617856 161.621092 
L 226.827757 162.216997 
L 229.037658 162.806596 
L 231.247559 163.389846 
L 233.45746 163.966705 
L 235.667361 164.537134 
L 237.877262 165.101089 
L 240.087163 165.658532 
L 242.297064 166.209422 
L 244.506965 166.75372 
L 246.716866 167.291384 
L 248.926767 167.822378 
L 251.136668 168.346661 
L 253.346569 168.864196 
L 255.55647 169.374944 
L 257.766371 169.878868 
L 259.976272 170.375931 
L 262.186173 170.866096 
L 264.396074 171.349326 
L 266.605975 171.825585 
L 268.815876 172.294839 
L 271.025777 172.757051 
L 273.235678 173.212187 
L 275.445579 173.660213 
L 277.65548 174.101094 
L 279.865381 174.534798 
L 282.075282 174.961291 
L 284.285183 175.380541 
L 286.495083 175.792516 
L 288.704984 176.197184 
L 290.914885 176.594515 
L 293.124786 176.984476 
L 295.334687 177.367039 
L 297.544588 177.742174 
L 299.754489 178.109852 
L 301.96439 178.470043 
" clip-path="url(#p3275be5b49)" style="fill: none; stroke-dasharray: 2,3.3; stroke-dashoffset: 0; stroke: #1f77b4; stroke-width: 2"/>
   </g>
   <g id="line2d_38">
    <path d="M 142.851521 135.548764 
L 145.061422 136.345895 
L 147.271323 137.138472 
L 149.481224 137.926444 
L 151.691125 138.709758 
L 153.901026 139.488362 
L 156.110927 140.262204 
L 158.320828 141.031234 
L 160.530729 141.795399 
L 162.74063 142.55465 
L 164.950531 143.308936 
L 167.160432 144.058206 
L 169.370333 144.802412 
L 171.580234 145.541502 
L 173.790135 146.275429 
L 176.000036 147.004142 
L 178.209937 147.727593 
L 180.419838 148.445734 
L 182.629739 149.158517 
L 184.83964 149.865893 
L 187.049541 150.567814 
L 189.259442 151.264234 
L 191.469343 151.955104 
L 193.679244 152.640379 
L 195.889145 153.320012 
L 198.099046 153.993956 
L 200.308947 154.662165 
L 202.518848 155.324594 
L 204.728749 155.981197 
L 206.93865 156.631929 
L 209.148551 157.276744 
L 211.358452 157.915599 
L 213.568353 158.548449 
L 215.778254 159.17525 
L 217.988155 159.795958 
L 220.198056 160.410529 
L 222.407957 161.018922 
L 224.617858 161.621092 
L 226.827759 162.216998 
L 229.03766 162.806596 
L 231.247561 163.389846 
L 233.457462 163.966706 
L 235.667363 164.537134 
L 237.877264 165.10109 
L 240.087165 165.658533 
L 242.297066 166.209423 
L 244.506967 166.75372 
L 246.716868 167.291385 
L 248.926769 167.822378 
L 251.13667 168.346662 
L 253.346571 168.864196 
L 255.556472 169.374945 
L 257.766373 169.878869 
L 259.976274 170.375931 
L 262.186175 170.866096 
L 264.396076 171.349326 
L 266.605977 171.825586 
L 268.815878 172.294839 
" clip-path="url(#p3275be5b49)" style="fill: none; stroke: #1f77b4; stroke-width: 2; stroke-linecap: square"/>
   </g>
   <g id="line2d_39">
    <path d="M 135.903592 174.124475 
L 138.113493 172.99857 
L 140.323394 171.882044 
L 142.533295 170.775185 
L 144.743196 169.678284 
L 146.953097 168.591637 
L 149.162998 167.515545 
L 151.372899 166.450312 
L 153.5828 165.396245 
L 155.792701 164.353656 
L 158.002602 163.322862 
L 160.212503 162.304181 
L 162.422404 161.297936 
L 164.632305 160.304455 
L 166.842206 159.324067 
L 169.052107 158.357106 
L 171.262008 157.403907 
L 173.471909 156.464811 
L 175.68181 155.540159 
L 177.891711 154.630295 
L 180.101612 153.735566 
L 182.311513 152.85632 
L 184.521414 151.992908 
L 186.731315 151.145681 
L 188.941216 150.31499 
L 191.151117 149.50119 
L 193.361018 148.704633 
L 195.570919 147.925673 
L 197.78082 147.164661 
L 199.990721 146.42195 
L 202.200622 145.697889 
L 204.410523 144.992826 
L 206.620424 144.307106 
L 208.830325 143.641073 
L 211.040226 142.995063 
L 213.250127 142.369413 
L 215.460028 141.764451 
L 217.669929 141.180502 
L 219.87983 140.617884 
L 222.089731 140.076909 
L 224.299632 139.557881 
L 226.509533 139.061096 
L 228.719434 138.586843 
L 230.929335 138.1354 
L 233.139236 137.707037 
L 235.349136 137.30201 
L 237.559037 136.920569 
L 239.768938 136.562948 
L 241.978839 136.229371 
L 244.18874 135.920048 
L 246.398641 135.635176 
L 248.608542 135.374938 
L 250.818443 135.139503 
L 253.028344 134.929024 
L 255.238245 134.74364 
L 257.448146 134.583473 
L 259.658047 134.448629 
L 261.867948 134.339199 
L 264.077849 134.255255 
L 266.28775 134.196855 
L 268.497651 134.164036 
L 270.707552 134.156822 
L 272.917453 134.175217 
L 275.127354 134.219209 
L 277.337255 134.288769 
L 279.547156 134.383849 
L 281.757057 134.504385 
L 283.966958 134.650298 
L 286.176859 134.821489 
L 288.38676 135.017847 
L 290.596661 135.23924 
L 292.806562 135.485524 
L 295.016463 135.75654 
L 297.226364 136.052111 
L 299.436265 136.372049 
" clip-path="url(#p3275be5b49)" style="fill: none; stroke-dasharray: 2,3.3; stroke-dashoffset: 0; stroke: #ff7f0e; stroke-width: 2"/>
   </g>
   <g id="line2d_40">
    <path d="M 169.052109 158.357105 
L 171.26201 157.403907 
L 173.471911 156.46481 
L 175.681812 155.540158 
L 177.891713 154.630294 
L 180.101614 153.735565 
L 182.311515 152.85632 
L 184.521416 151.992907 
L 186.731317 151.14568 
L 188.941218 150.314989 
L 191.151119 149.501189 
L 193.36102 148.704632 
L 195.570921 147.925672 
L 197.780822 147.16466 
L 199.990723 146.421949 
L 202.200624 145.697888 
L 204.410525 144.992825 
L 206.620426 144.307106 
L 208.830327 143.641072 
L 211.040228 142.995063 
L 213.250129 142.369412 
L 215.46003 141.764451 
L 217.669931 141.180502 
L 219.879832 140.617884 
L 222.089733 140.076908 
L 224.299634 139.55788 
L 226.509535 139.061096 
L 228.719435 138.586843 
L 230.929336 138.1354 
L 233.139237 137.707036 
L 235.349138 137.30201 
L 237.559039 136.920569 
L 239.76894 136.562948 
L 241.978841 136.229371 
L 244.188742 135.920048 
L 246.398643 135.635176 
L 248.608544 135.374938 
L 250.818445 135.139503 
L 253.028346 134.929024 
L 255.238247 134.74364 
L 257.448148 134.583473 
L 259.658049 134.448629 
L 261.86795 134.339199 
L 264.077851 134.255255 
L 266.287752 134.196854 
" clip-path="url(#p3275be5b49)" style="fill: none; stroke: #ff7f0e; stroke-width: 2; stroke-linecap: square"/>
   </g>
   <g id="line2d_41">
    <path d="M 135.797517 146.069537 
L 138.007418 145.232654 
L 140.217319 144.390547 
L 142.42722 143.543268 
L 144.637121 142.690868 
L 146.847022 141.833397 
L 149.056923 140.970907 
L 151.266824 140.103449 
L 153.476725 139.231076 
L 155.686626 138.353839 
L 157.896527 137.47179 
L 160.106428 136.584981 
L 162.316329 135.693465 
L 164.52623 134.797293 
L 166.736131 133.896519 
L 168.946032 132.991196 
L 171.155933 132.081375 
L 173.365834 131.167111 
L 175.575735 130.248456 
L 177.785636 129.325465 
L 179.995537 128.39819 
L 182.205438 127.466686 
L 184.415339 126.531007 
L 186.62524 125.591208 
L 188.835141 124.647342 
L 191.045042 123.699465 
L 193.254943 122.747632 
L 195.464844 121.791898 
L 197.674745 120.832319 
L 199.884646 119.868951 
L 202.094547 118.901851 
L 204.304448 117.931074 
L 206.514349 116.956679 
L 208.72425 115.978721 
L 210.934151 114.99726 
L 213.144052 114.012354 
L 215.353953 113.024061 
L 217.563853 112.03244 
L 219.773754 111.037551 
L 221.983655 110.039454 
L 224.193556 109.03821 
L 226.403457 108.033881 
L 228.613358 107.026528 
L 230.823259 106.016214 
L 233.03316 105.003002 
L 235.243061 103.986957 
L 237.452962 102.968144 
L 239.662863 101.946628 
L 241.872764 100.922477 
L 244.082665 99.895758 
L 246.292566 98.866539 
L 248.502467 97.834892 
L 250.712368 96.800886 
L 252.922269 95.764595 
L 255.13217 94.726091 
L 257.342071 93.685451 
L 259.551972 92.64275 
L 261.761873 91.598067 
L 263.971774 90.551482 
L 266.181675 89.503078 
L 268.391576 88.452937 
L 270.601477 87.401146 
L 272.811378 86.347794 
L 275.021279 85.29297 
L 277.23118 84.236769 
L 279.441081 83.179287 
L 281.650982 82.120623 
L 283.860883 81.06088 
L 286.070784 80.000163 
L 288.280685 78.938583 
L 290.490586 77.876253 
L 292.700487 76.813292 
L 294.910388 75.749822 
L 297.120289 74.685972 
" clip-path="url(#p3275be5b49)" style="fill: none; stroke-dasharray: 2,3.3; stroke-dashoffset: 0; stroke: #2ca02c; stroke-width: 2"/>
   </g>
   <g id="line2d_42">
    <path d="M 168.946034 132.991195 
L 171.155935 132.081374 
L 173.365836 131.16711 
L 175.575737 130.248455 
L 177.785638 129.325464 
L 179.995539 128.398189 
L 182.20544 127.466685 
L 184.415341 126.531007 
L 186.625242 125.591207 
L 188.835143 124.647341 
L 191.045044 123.699464 
L 193.254945 122.747631 
L 195.464846 121.791897 
L 197.674747 120.832318 
L 199.884648 119.86895 
L 202.094549 118.90185 
L 204.30445 117.931073 
L 206.514351 116.956678 
L 208.724252 115.978721 
L 210.934153 114.99726 
L 213.144053 114.012353 
L 215.353954 113.02406 
L 217.563855 112.032439 
L 219.773756 111.03755 
L 221.983657 110.039453 
L 224.193558 109.038209 
L 226.403459 108.03388 
L 228.61336 107.026527 
L 230.823261 106.016213 
L 233.033162 105.003001 
L 235.243063 103.986956 
L 237.452964 102.968143 
L 239.662865 101.946627 
L 241.872766 100.922476 
L 244.082667 99.895757 
L 246.292568 98.866539 
L 248.502469 97.834891 
L 250.71237 96.800885 
L 252.922271 95.764594 
L 255.132172 94.72609 
L 257.342073 93.68545 
L 259.551974 92.642749 
L 261.761875 91.598066 
L 263.971776 90.551481 
" clip-path="url(#p3275be5b49)" style="fill: none; stroke: #2ca02c; stroke-width: 2; stroke-linecap: square"/>
   </g>
   <g id="line2d_43">
    <path d="M 111.612359 120.629246 
L 113.82226 120.58002 
L 116.032161 120.529422 
L 118.242062 120.47746 
L 120.451963 120.424141 
L 122.661864 120.369473 
L 124.871765 120.313463 
L 127.081666 120.25612 
L 129.291567 120.197452 
L 131.501468 120.137466 
L 133.711369 120.076172 
L 135.92127 120.013578 
L 138.131171 119.949692 
L 140.341072 119.884525 
L 142.550973 119.818086 
L 144.760874 119.750383 
L 146.970775 119.681427 
L 149.180676 119.611227 
L 151.390577 119.539794 
L 153.600478 119.467138 
L 155.810379 119.393269 
L 158.02028 119.318198 
L 160.230181 119.241935 
L 162.440082 119.164493 
L 164.649983 119.085881 
L 166.859884 119.006112 
L 169.069785 118.925197 
L 171.279686 118.843148 
L 173.489587 118.759976 
L 175.699488 118.675695 
L 177.909389 118.590315 
L 180.11929 118.503851 
L 182.329191 118.416314 
L 184.539092 118.327717 
L 186.748993 118.238073 
L 188.958894 118.147396 
L 191.168795 118.055699 
L 193.378696 117.962996 
L 195.588597 117.8693 
L 197.798498 117.774625 
L 200.008399 117.678986 
L 202.2183 117.582396 
L 204.428201 117.484871 
L 206.638102 117.386424 
L 208.848003 117.287071 
L 211.057904 117.186827 
L 213.267805 117.085706 
L 215.477706 116.983725 
L 217.687607 116.880897 
L 219.897508 116.77724 
L 222.107409 116.672769 
L 224.31731 116.5675 
L 226.527211 116.461448 
L 228.737112 116.354631 
L 230.947013 116.247064 
L 233.156914 116.138765 
L 235.366815 116.029749 
L 237.576716 115.920035 
L 239.786616 115.809638 
L 241.996517 115.698577 
L 244.206418 115.586867 
L 246.416319 115.474528 
L 248.62622 115.361576 
L 250.836121 115.248029 
L 253.046022 115.133906 
L 255.255923 115.019224 
L 257.465824 114.904001 
L 259.675725 114.788256 
L 261.885626 114.672007 
L 264.095527 114.555272 
L 266.305428 114.438071 
L 268.515329 114.320423 
L 270.72523 114.202345 
L 272.935131 114.083858 
L 275.145032 113.96498 
L 277.354933 113.845731 
L 279.564834 113.72613 
L 281.774735 113.606197 
L 283.984636 113.485951 
L 286.194537 113.365413 
L 288.404438 113.244601 
L 290.614339 113.123536 
L 292.82424 113.002239 
L 295.034141 112.880729 
L 297.244042 112.759026 
L 299.453943 112.637151 
L 301.663844 112.515125 
L 303.873745 112.392967 
L 306.083646 112.270699 
L 308.293547 112.14834 
L 310.503448 112.025913 
L 312.713349 111.903438 
L 314.92325 111.780935 
L 317.133151 111.658427 
L 319.343052 111.535932 
L 321.552953 111.413474 
L 323.762854 111.291073 
L 325.972755 111.168751 
L 328.182656 111.046527 
" clip-path="url(#p3275be5b49)" style="fill: none; stroke-dasharray: 2,3.3; stroke-dashoffset: 0; stroke: #d62728; stroke-width: 2"/>
   </g>
   <g id="line2d_44">
    <path d="M 144.760876 119.750383 
L 146.970777 119.681427 
L 149.180678 119.611227 
L 151.390579 119.539794 
L 153.60048 119.467138 
L 155.810381 119.393269 
L 158.020282 119.318197 
L 160.230183 119.241935 
L 162.440084 119.164493 
L 164.649985 119.085881 
L 166.859886 119.006112 
L 169.069787 118.925197 
L 171.279688 118.843148 
L 173.489589 118.759976 
L 175.69949 118.675695 
L 177.909391 118.590315 
L 180.119292 118.503851 
L 182.329193 118.416313 
L 184.539094 118.327717 
L 186.748995 118.238073 
L 188.958896 118.147396 
L 191.168797 118.055699 
L 193.378698 117.962996 
L 195.588599 117.8693 
L 197.7985 117.774625 
L 200.008401 117.678986 
L 202.218302 117.582396 
L 204.428203 117.484871 
L 206.638104 117.386424 
L 208.848005 117.287071 
L 211.057906 117.186827 
L 213.267807 117.085706 
L 215.477708 116.983725 
L 217.687609 116.880897 
L 219.89751 116.77724 
L 222.107411 116.672769 
L 224.317312 116.567499 
L 226.527213 116.461448 
L 228.737114 116.354631 
L 230.947015 116.247064 
L 233.156916 116.138765 
L 235.366816 116.029749 
L 237.576717 115.920035 
L 239.786618 115.809638 
L 241.996519 115.698576 
L 244.20642 115.586867 
L 246.416321 115.474528 
L 248.626222 115.361576 
L 250.836123 115.248029 
L 253.046024 115.133906 
L 255.255925 115.019224 
L 257.465826 114.904001 
L 259.675727 114.788256 
L 261.885628 114.672006 
L 264.095529 114.555272 
L 266.30543 114.438071 
L 268.515331 114.320422 
L 270.725232 114.202345 
L 272.935133 114.083858 
L 275.145034 113.96498 
L 277.354935 113.845731 
L 279.564836 113.72613 
L 281.774737 113.606197 
L 283.984638 113.485951 
L 286.194539 113.365412 
L 288.40444 113.244601 
L 290.614341 113.123536 
L 292.824242 113.002239 
L 295.034143 112.880729 
" clip-path="url(#p3275be5b49)" style="fill: none; stroke: #d62728; stroke-width: 2; stroke-linecap: square"/>
   </g>
   <g id="line2d_45">
    <path d="M 179.924823 100.333999 
L 182.134724 99.634732 
L 184.344625 98.959917 
L 186.554526 98.310155 
L 188.764427 97.68604 
L 190.974328 97.088159 
L 193.184229 96.517091 
L 195.39413 95.9734 
L 197.604031 95.457639 
L 199.813931 94.970342 
L 202.023832 94.512027 
L 204.233733 94.08319 
L 206.443634 93.684305 
L 208.653535 93.315822 
L 210.863436 92.978162 
L 213.073337 92.671717 
L 215.283238 92.396851 
L 217.493139 92.153892 
L 219.70304 91.943133 
L 221.912941 91.764834 
L 224.122842 91.619213 
L 226.332743 91.506451 
L 228.542644 91.426691 
L 230.752545 91.380031 
L 232.962446 91.366532 
L 235.172347 91.386209 
L 237.382248 91.439038 
L 239.592149 91.524953 
L 241.80205 91.643845 
L 244.011951 91.795567 
L 246.221852 91.979929 
L 248.431753 92.196704 
L 250.641654 92.445629 
L 252.851555 92.726402 
L 255.061456 93.038687 
L 257.271357 93.382118 
L 259.481258 93.756296 
L 261.691159 94.160793 
L 263.90106 94.595156 
L 266.110961 95.058907 
L 268.320862 95.551544 
L 270.530763 96.072548 
L 272.740664 96.621379 
L 274.950565 97.197484 
L 277.160466 97.800294 
L 279.370367 98.429231 
L 281.580268 99.083704 
L 283.790169 99.763119 
L 286.00007 100.466872 
L 288.209971 101.194358 
L 290.419872 101.944969 
L 292.629773 102.718096 
L 294.839674 103.513132 
L 297.049575 104.329469 
L 299.259476 105.166505 
L 301.469377 106.023643 
L 303.679278 106.900289 
L 305.889179 107.795858 
L 308.09908 108.70977 
L 310.308981 109.641454 
L 312.518882 110.590348 
L 314.728783 111.555899 
L 316.938684 112.537562 
L 319.148585 113.534804 
L 321.358486 114.5471 
L 323.568387 115.573939 
L 325.778288 116.614818 
L 327.988189 117.669245 
L 330.19809 118.73674 
L 332.407991 119.816834 
L 334.617892 120.909067 
L 336.827793 122.012993 
L 339.037694 123.128174 
L 341.247595 124.254185 
L 343.457496 125.390611 
L 345.667397 126.537046 
L 347.877298 127.693096 
L 350.087199 128.858378 
" clip-path="url(#p3275be5b49)" style="fill: none; stroke-dasharray: 2,3.3; stroke-dashoffset: 0; stroke: #9467bd; stroke-width: 2"/>
   </g>
   <g id="line2d_46">
    <path d="M 213.073339 92.671717 
L 215.28324 92.396851 
L 217.493141 92.153892 
L 219.703042 91.943133 
L 221.912943 91.764833 
L 224.122844 91.619212 
L 226.332745 91.506451 
L 228.542646 91.426691 
L 230.752547 91.380031 
L 232.962448 91.366532 
L 235.172349 91.386209 
L 237.38225 91.439038 
L 239.592151 91.524953 
L 241.802052 91.643845 
L 244.011953 91.795567 
L 246.221854 91.979929 
L 248.431755 92.196705 
L 250.641656 92.445629 
L 252.851557 92.726402 
L 255.061458 93.038687 
L 257.271359 93.382118 
L 259.48126 93.756296 
L 261.691161 94.160793 
L 263.901062 94.595157 
L 266.110963 95.058907 
L 268.320864 95.551545 
L 270.530765 96.072549 
L 272.740666 96.62138 
L 274.950567 97.197485 
L 277.160468 97.800295 
L 279.370369 98.429231 
L 281.58027 99.083705 
L 283.790171 99.763119 
L 286.000072 100.466873 
L 288.209973 101.194359 
L 290.419874 101.94497 
L 292.629775 102.718097 
L 294.839676 103.513132 
L 297.049577 104.329469 
L 299.259478 105.166506 
L 301.469379 106.023644 
L 303.67928 106.90029 
L 305.889181 107.795859 
L 308.099082 108.709771 
L 310.308983 109.641455 
L 312.518884 110.590349 
L 314.728785 111.5559 
L 316.938686 112.537563 
" clip-path="url(#p3275be5b49)" style="fill: none; stroke: #9467bd; stroke-width: 2; stroke-linecap: square"/>
   </g>
   <g id="line2d_47">
    <path d="M 219.809118 107.154245 
L 222.019019 107.804136 
L 224.22892 108.477764 
L 226.438821 109.174602 
L 228.648722 109.894121 
L 230.858623 110.635788 
L 233.068524 111.39907 
L 235.278425 112.18343 
L 237.488326 112.988336 
L 239.698227 113.813253 
L 241.908128 114.657652 
L 244.118029 115.521006 
L 246.32793 116.402792 
L 248.537831 117.302492 
L 250.747732 118.219595 
L 252.957633 119.153592 
L 255.167534 120.103986 
L 257.377435 121.070282 
L 259.587336 122.051996 
L 261.797237 123.048649 
L 264.007138 124.059773 
L 266.217039 125.084906 
L 268.42694 126.123594 
L 270.636841 127.175394 
L 272.846742 128.239869 
L 275.056643 129.316593 
L 277.266544 130.405147 
L 279.476445 131.505122 
L 281.686346 132.616118 
L 283.896247 133.737741 
L 286.106148 134.86961 
L 288.316049 136.01135 
L 290.52595 137.162593 
L 292.735851 138.322983 
L 294.945752 139.49217 
L 297.155653 140.669811 
L 299.365554 141.855575 
L 301.575455 143.049135 
L 303.785356 144.250172 
L 305.995257 145.458377 
L 308.205158 146.673446 
L 310.415059 147.895082 
L 312.62496 149.122996 
L 314.834861 150.356906 
L 317.044762 151.596535 
L 319.254663 152.841614 
L 321.464563 154.091879 
L 323.674464 155.347072 
L 325.884365 156.606943 
L 328.094266 157.871244 
L 330.304167 159.139735 
L 332.514068 160.412181 
L 334.723969 161.688352 
L 336.93387 162.968021 
L 339.143771 164.25097 
L 341.353672 165.536981 
L 343.563573 166.825844 
L 345.773474 168.11735 
L 347.983375 169.411298 
L 350.193276 170.707488 
L 352.403177 172.005725 
L 354.613078 173.305817 
L 356.822979 174.607576 
L 359.03288 175.910818 
L 361.242781 177.215361 
L 363.452682 178.521028 
" clip-path="url(#p3275be5b49)" style="fill: none; stroke-dasharray: 2,3.3; stroke-dashoffset: 0; stroke: #8c564b; stroke-width: 2"/>
   </g>
   <g id="line2d_48">
    <path d="M 252.957635 119.153593 
L 255.167536 120.103987 
L 257.377437 121.070283 
L 259.587338 122.051997 
L 261.797239 123.04865 
L 264.00714 124.059774 
L 266.217041 125.084907 
L 268.426942 126.123595 
L 270.636843 127.175395 
L 272.846744 128.23987 
L 275.056645 129.316594 
L 277.266546 130.405148 
L 279.476447 131.505123 
L 281.686348 132.616119 
L 283.896249 133.737743 
L 286.10615 134.869611 
L 288.316051 136.011351 
L 290.525952 137.162594 
L 292.735853 138.322984 
L 294.945754 139.492171 
L 297.155655 140.669813 
L 299.365556 141.855576 
L 301.575457 143.049136 
L 303.785358 144.250174 
L 305.995259 145.458378 
L 308.20516 146.673447 
L 310.415061 147.895083 
L 312.624962 149.122997 
L 314.834863 150.356907 
L 317.044763 151.596536 
L 319.254664 152.841615 
L 321.464565 154.09188 
L 323.674466 155.347073 
L 325.884367 156.606944 
L 328.094268 157.871245 
L 330.304169 159.139736 
" clip-path="url(#p3275be5b49)" style="fill: none; stroke: #8c564b; stroke-width: 2; stroke-linecap: square"/>
   </g>
   <g id="line2d_49">
    <path d="M 274.543949 48.662903 
L 276.75385 48.490368 
L 278.963751 48.343178 
L 281.173652 48.221622 
L 283.383553 48.125943 
L 285.593454 48.056334 
L 287.803355 48.012937 
L 290.013256 47.995839 
L 292.223157 48.005077 
L 294.433058 48.040632 
L 296.642959 48.102429 
L 298.85286 48.190345 
L 301.062761 48.3042 
L 303.272662 48.443767 
L 305.482563 48.608771 
L 307.692464 48.798888 
L 309.902365 49.013754 
L 312.112266 49.252966 
L 314.322167 49.516081 
L 316.532068 49.802626 
L 318.741969 50.112097 
L 320.95187 50.443966 
L 323.161771 50.79768 
L 325.371672 51.17267 
L 327.581573 51.568351 
L 329.791474 51.984126 
L 332.001375 52.419389 
L 334.211276 52.87353 
L 336.421177 53.345933 
L 338.631078 53.835986 
L 340.840979 54.343076 
L 343.05088 54.866594 
L 345.260781 55.405939 
L 347.470681 55.960516 
L 349.680582 56.529739 
L 351.890483 57.113035 
L 354.100384 57.709838 
L 356.310285 58.319599 
L 358.520186 58.941778 
L 360.730087 59.575851 
L 362.939988 60.221306 
L 365.149889 60.877648 
L 367.35979 61.544393 
L 369.569691 62.221074 
L 371.779592 62.907237 
L 373.989493 63.602444 
L 376.199394 64.306268 
L 378.409295 65.018301 
L 380.619196 65.738144 
L 382.829097 66.465414 
L 385.038998 67.199741 
L 387.248899 67.940767 
L 389.4588 68.688148 
L 391.668701 69.441551 
L 393.878602 70.200653 
L 396.088503 70.965147 
L 398.298404 71.734732 
L 400.508305 72.509121 
" clip-path="url(#p3275be5b49)" style="fill: none; stroke-dasharray: 2,3.3; stroke-dashoffset: 0; stroke: #e377c2; stroke-width: 2"/>
   </g>
   <g id="line2d_50">
    <path d="M 307.692466 48.798888 
L 309.902367 49.013755 
L 312.112268 49.252966 
L 314.322169 49.516081 
L 316.53207 49.802626 
L 318.741971 50.112097 
L 320.951872 50.443966 
L 323.161773 50.79768 
L 325.371674 51.172671 
L 327.581575 51.568351 
L 329.791476 51.984126 
L 332.001377 52.41939 
L 334.211278 52.87353 
L 336.421179 53.345934 
L 338.63108 53.835987 
L 340.84098 54.343076 
L 343.050881 54.866594 
L 345.260782 55.405939 
L 347.470683 55.960516 
L 349.680584 56.52974 
L 351.890485 57.113035 
L 354.100386 57.709839 
L 356.310287 58.3196 
L 358.520188 58.941779 
L 360.730089 59.575851 
L 362.93999 60.221307 
L 365.149891 60.877649 
L 367.359792 61.544394 
" clip-path="url(#p3275be5b49)" style="fill: none; stroke: #e377c2; stroke-width: 2; stroke-linecap: square"/>
   </g>
   <g id="patch_4">
    <path d="M 33.169688 358.518125 
L 33.169688 25.878125 
" style="fill: none; stroke: #000000; stroke-width: 0.8; stroke-linejoin: miter; stroke-linecap: square"/>
   </g>
   <g id="patch_5">
    <path d="M 479.569687 358.518125 
L 479.569687 25.878125 
" style="fill: none; stroke: #000000; stroke-width: 0.8; stroke-linejoin: miter; stroke-linecap: square"/>
   </g>
   <g id="patch_6">
    <path d="M 33.169688 358.518125 
L 479.569687 358.518125 
" style="fill: none; stroke: #000000; stroke-width: 0.8; stroke-linejoin: miter; stroke-linecap: square"/>
   </g>
   <g id="patch_7">
    <path d="M 33.169688 25.878125 
L 479.569687 25.878125 
" style="fill: none; stroke: #000000; stroke-width: 0.8; stroke-linejoin: miter; stroke-linecap: square"/>
   </g>
   <g id="legend_1">
    <g id="patch_8">
     <path d="M 66.088437 23.378125 
L 446.650937 23.378125 
Q 447.650937 23.378125 447.650937 22.378125 
L 447.650937 8.2 
Q 447.650937 7.2 446.650937 7.2 
L 66.088437 7.2 
Q 65.088437 7.2 65.088437 8.2 
L 65.088437 22.378125 
Q 65.088437 23.378125 66.088437 23.378125 
z
" style="fill: #ffffff; opacity: 0.8; stroke: #cccccc; stroke-linejoin: miter"/>
    </g>
    <g id="line2d_51">
     <path d="M 67.088437 11.249219 
L 72.088437 11.249219 
L 77.088437 11.249219 
" style="fill: none; stroke-dasharray: 9.6,2.4,1.5,2.4; stroke-dashoffset: 0; stroke: #ff0000; stroke-opacity: 0.5; stroke-width: 1.5"/>
    </g>
    <g id="text_20">
     <!-- Sun -->
     <g transform="translate(81.088437 12.999219) scale(0.05 -0.05)">
      <defs>
       <path id="DejaVuSans-53" d="M 3425 4513 
L 3425 3897 
Q 3066 4069 2747 4153 
Q 2428 4238 2131 4238 
Q 1616 4238 1336 4038 
Q 1056 3838 1056 3469 
Q 1056 3159 1242 3001 
Q 1428 2844 1947 2747 
L 2328 2669 
Q 3034 2534 3370 2195 
Q 3706 1856 3706 1288 
Q 3706 609 3251 259 
Q 2797 -91 1919 -91 
Q 1588 -91 1214 -16 
Q 841 59 441 206 
L 441 856 
Q 825 641 1194 531 
Q 1563 422 1919 422 
Q 2459 422 2753 634 
Q 3047 847 3047 1241 
Q 3047 1584 2836 1778 
Q 2625 1972 2144 2069 
L 1759 2144 
Q 1053 2284 737 2584 
Q 422 2884 422 3419 
Q 422 4038 858 4394 
Q 1294 4750 2059 4750 
Q 2388 4750 2728 4690 
Q 3069 4631 3425 4513 
z
" transform="scale(0.015625)"/>
       <path id="DejaVuSans-75" d="M 544 1381 
L 544 3500 
L 1119 3500 
L 1119 1403 
Q 1119 906 1312 657 
Q 1506 409 1894 409 
Q 2359 409 2629 706 
Q 2900 1003 2900 1516 
L 2900 3500 
L 3475 3500 
L 3475 0 
L 2900 0 
L 2900 538 
Q 2691 219 2414 64 
Q 2138 -91 1772 -91 
Q 1169 -91 856 284 
Q 544 659 544 1381 
z
M 1991 3584 
L 1991 3584 
z
" transform="scale(0.015625)"/>
      </defs>
      <use xlink:href="#DejaVuSans-53"/>
      <use xlink:href="#DejaVuSans-75" x="63.476562"/>
      <use xlink:href="#DejaVuSans-6e" x="126.855469"/>
     </g>
    </g>
    <g id="line2d_52">
     <path d="M 67.088437 18.588281 
L 72.088437 18.588281 
L 77.088437 18.588281 
" style="fill: none; stroke-dasharray: 9.6,2.4,1.5,2.4; stroke-dashoffset: 0; stroke: #0000ff; stroke-opacity: 0.5; stroke-width: 1.5"/>
    </g>
    <g id="text_21">
     <!-- Moon -->
     <g transform="translate(81.088437 20.338281) scale(0.05 -0.05)">
      <defs>
       <path id="DejaVuSans-4d" d="M 628 4666 
L 1569 4666 
L 2759 1491 
L 3956 4666 
L 4897 4666 
L 4897 0 
L 4281 0 
L 4281 4097 
L 3078 897 
L 2444 897 
L 1241 4097 
L 1241 0 
L 628 0 
L 628 4666 
z
" transform="scale(0.015625)"/>
      </defs>
      <use xlink:href="#DejaVuSans-4d"/>
      <use xlink:href="#DejaVuSans-6f" x="86.279297"/>
      <use xlink:href="#DejaVuSans-6f" x="147.460938"/>
      <use xlink:href="#DejaVuSans-6e" x="208.642578"/>
     </g>
    </g>
    <g id="line2d_53">
     <path d="M 104.69 11.249219 
L 109.69 11.249219 
L 114.69 11.249219 
" style="fill: none; stroke: #1f77b4; stroke-width: 2; stroke-linecap: square"/>
    </g>
    <g id="text_22">
     <!-- TIC 281196902.01 -->
     <g transform="translate(118.69 12.999219) scale(0.05 -0.05)">
      <defs>
       <path id="DejaVuSans-49" d="M 628 4666 
L 1259 4666 
L 1259 0 
L 628 0 
L 628 4666 
z
" transform="scale(0.015625)"/>
       <path id="DejaVuSans-2e" d="M 684 794 
L 1344 794 
L 1344 0 
L 684 0 
L 684 794 
z
" transform="scale(0.015625)"/>
      </defs>
      <use xlink:href="#DejaVuSans-54"/>
      <use xlink:href="#DejaVuSans-49" x="61.083984"/>
      <use xlink:href="#DejaVuSans-43" x="90.576172"/>
      <use xlink:href="#DejaVuSans-20" x="160.400391"/>
      <use xlink:href="#DejaVuSans-32" x="192.1875"/>
      <use xlink:href="#DejaVuSans-38" x="255.810547"/>
      <use xlink:href="#DejaVuSans-31" x="319.433594"/>
      <use xlink:href="#DejaVuSans-31" x="383.056641"/>
      <use xlink:href="#DejaVuSans-39" x="446.679688"/>
      <use xlink:href="#DejaVuSans-36" x="510.302734"/>
      <use xlink:href="#DejaVuSans-39" x="573.925781"/>
      <use xlink:href="#DejaVuSans-30" x="637.548828"/>
      <use xlink:href="#DejaVuSans-32" x="701.171875"/>
      <use xlink:href="#DejaVuSans-2e" x="764.794922"/>
      <use xlink:href="#DejaVuSans-30" x="796.582031"/>
      <use xlink:href="#DejaVuSans-31" x="860.205078"/>
     </g>
    </g>
    <g id="line2d_54">
     <path d="M 104.69 18.588281 
L 109.69 18.588281 
L 114.69 18.588281 
" style="fill: none; stroke: #ff7f0e; stroke-width: 2; stroke-linecap: square"/>
    </g>
    <g id="text_23">
     <!-- TIC 81247877.01 -->
     <g transform="translate(118.69 20.338281) scale(0.05 -0.05)">
      <use xlink:href="#DejaVuSans-54"/>
      <use xlink:href="#DejaVuSans-49" x="61.083984"/>
      <use xlink:href="#DejaVuSans-43" x="90.576172"/>
      <use xlink:href="#DejaVuSans-20" x="160.400391"/>
      <use xlink:href="#DejaVuSans-38" x="192.1875"/>
      <use xlink:href="#DejaVuSans-31" x="255.810547"/>
      <use xlink:href="#DejaVuSans-32" x="319.433594"/>
      <use xlink:href="#DejaVuSans-34" x="383.056641"/>
      <use xlink:href="#DejaVuSans-37" x="446.679688"/>
      <use xlink:href="#DejaVuSans-38" x="510.302734"/>
      <use xlink:href="#DejaVuSans-37" x="573.925781"/>
      <use xlink:href="#DejaVuSans-37" x="637.548828"/>
      <use xlink:href="#DejaVuSans-2e" x="701.171875"/>
      <use xlink:href="#DejaVuSans-30" x="732.958984"/>
      <use xlink:href="#DejaVuSans-31" x="796.582031"/>
     </g>
    </g>
    <g id="line2d_55">
     <path d="M 174.882187 11.249219 
L 179.882187 11.249219 
L 184.882187 11.249219 
" style="fill: none; stroke: #2ca02c; stroke-width: 2; stroke-linecap: square"/>
    </g>
    <g id="text_24">
     <!-- TIC 307956397.01 -->
     <g transform="translate(188.882187 12.999219) scale(0.05 -0.05)">
      <use xlink:href="#DejaVuSans-54"/>
      <use xlink:href="#DejaVuSans-49" x="61.083984"/>
      <use xlink:href="#DejaVuSans-43" x="90.576172"/>
      <use xlink:href="#DejaVuSans-20" x="160.400391"/>
      <use xlink:href="#DejaVuSans-33" x="192.1875"/>
      <use xlink:href="#DejaVuSans-30" x="255.810547"/>
      <use xlink:href="#DejaVuSans-37" x="319.433594"/>
      <use xlink:href="#DejaVuSans-39" x="383.056641"/>
      <use xlink:href="#DejaVuSans-35" x="446.679688"/>
      <use xlink:href="#DejaVuSans-36" x="510.302734"/>
      <use xlink:href="#DejaVuSans-33" x="573.925781"/>
      <use xlink:href="#DejaVuSans-39" x="637.548828"/>
      <use xlink:href="#DejaVuSans-37" x="701.171875"/>
      <use xlink:href="#DejaVuSans-2e" x="764.794922"/>
      <use xlink:href="#DejaVuSans-30" x="796.582031"/>
      <use xlink:href="#DejaVuSans-31" x="860.205078"/>
     </g>
    </g>
    <g id="line2d_56">
     <path d="M 174.882187 18.588281 
L 179.882187 18.588281 
L 184.882187 18.588281 
" style="fill: none; stroke: #d62728; stroke-width: 2; stroke-linecap: square"/>
    </g>
    <g id="text_25">
     <!-- TIC 420268415.01 -->
     <g transform="translate(188.882187 20.338281) scale(0.05 -0.05)">
      <use xlink:href="#DejaVuSans-54"/>
      <use xlink:href="#DejaVuSans-49" x="61.083984"/>
      <use xlink:href="#DejaVuSans-43" x="90.576172"/>
      <use xlink:href="#DejaVuSans-20" x="160.400391"/>
      <use xlink:href="#DejaVuSans-34" x="192.1875"/>
      <use xlink:href="#DejaVuSans-32" x="255.810547"/>
      <use xlink:href="#DejaVuSans-30" x="319.433594"/>
      <use xlink:href="#DejaVuSans-32" x="383.056641"/>
      <use xlink:href="#DejaVuSans-36" x="446.679688"/>
      <use xlink:href="#DejaVuSans-38" x="510.302734"/>
      <use xlink:href="#DejaVuSans-34" x="573.925781"/>
      <use xlink:href="#DejaVuSans-31" x="637.548828"/>
      <use xlink:href="#DejaVuSans-35" x="701.171875"/>
      <use xlink:href="#DejaVuSans-2e" x="764.794922"/>
      <use xlink:href="#DejaVuSans-30" x="796.582031"/>
      <use xlink:href="#DejaVuSans-31" x="860.205078"/>
     </g>
    </g>
    <g id="line2d_57">
     <path d="M 245.074375 11.249219 
L 250.074375 11.249219 
L 255.074375 11.249219 
" style="fill: none; stroke: #9467bd; stroke-width: 2; stroke-linecap: square"/>
    </g>
    <g id="text_26">
     <!-- TIC 376632626.01 -->
     <g transform="translate(259.074375 12.999219) scale(0.05 -0.05)">
      <use xlink:href="#DejaVuSans-54"/>
      <use xlink:href="#DejaVuSans-49" x="61.083984"/>
      <use xlink:href="#DejaVuSans-43" x="90.576172"/>
      <use xlink:href="#DejaVuSans-20" x="160.400391"/>
      <use xlink:href="#DejaVuSans-33" x="192.1875"/>
      <use xlink:href="#DejaVuSans-37" x="255.810547"/>
      <use xlink:href="#DejaVuSans-36" x="319.433594"/>
      <use xlink:href="#DejaVuSans-36" x="383.056641"/>
      <use xlink:href="#DejaVuSans-33" x="446.679688"/>
      <use xlink:href="#DejaVuSans-32" x="510.302734"/>
      <use xlink:href="#DejaVuSans-36" x="573.925781"/>
      <use xlink:href="#DejaVuSans-32" x="637.548828"/>
      <use xlink:href="#DejaVuSans-36" x="701.171875"/>
      <use xlink:href="#DejaVuSans-2e" x="764.794922"/>
      <use xlink:href="#DejaVuSans-30" x="796.582031"/>
      <use xlink:href="#DejaVuSans-31" x="860.205078"/>
     </g>
    </g>
    <g id="line2d_58">
     <path d="M 315.266563 11.249219 
L 320.266563 11.249219 
L 325.266563 11.249219 
" style="fill: none; stroke: #8c564b; stroke-width: 2; stroke-linecap: square"/>
    </g>
    <g id="text_27">
     <!-- TIC 307734818.01 -->
     <g transform="translate(329.266563 12.999219) scale(0.05 -0.05)">
      <use xlink:href="#DejaVuSans-54"/>
      <use xlink:href="#DejaVuSans-49" x="61.083984"/>
      <use xlink:href="#DejaVuSans-43" x="90.576172"/>
      <use xlink:href="#DejaVuSans-20" x="160.400391"/>
      <use xlink:href="#DejaVuSans-33" x="192.1875"/>
      <use xlink:href="#DejaVuSans-30" x="255.810547"/>
      <use xlink:href="#DejaVuSans-37" x="319.433594"/>
      <use xlink:href="#DejaVuSans-37" x="383.056641"/>
      <use xlink:href="#DejaVuSans-33" x="446.679688"/>
      <use xlink:href="#DejaVuSans-34" x="510.302734"/>
      <use xlink:href="#DejaVuSans-38" x="573.925781"/>
      <use xlink:href="#DejaVuSans-31" x="637.548828"/>
      <use xlink:href="#DejaVuSans-38" x="701.171875"/>
      <use xlink:href="#DejaVuSans-2e" x="764.794922"/>
      <use xlink:href="#DejaVuSans-30" x="796.582031"/>
      <use xlink:href="#DejaVuSans-31" x="860.205078"/>
     </g>
    </g>
    <g id="line2d_59">
     <path d="M 385.45875 11.249219 
L 390.45875 11.249219 
L 395.45875 11.249219 
" style="fill: none; stroke: #e377c2; stroke-width: 2; stroke-linecap: square"/>
    </g>
    <g id="text_28">
     <!-- TIC 154126149.01 -->
     <g transform="translate(399.45875 12.999219) scale(0.05 -0.05)">
      <use xlink:href="#DejaVuSans-54"/>
      <use xlink:href="#DejaVuSans-49" x="61.083984"/>
      <use xlink:href="#DejaVuSans-43" x="90.576172"/>
      <use xlink:href="#DejaVuSans-20" x="160.400391"/>
      <use xlink:href="#DejaVuSans-31" x="192.1875"/>
      <use xlink:href="#DejaVuSans-35" x="255.810547"/>
      <use xlink:href="#DejaVuSans-34" x="319.433594"/>
      <use xlink:href="#DejaVuSans-31" x="383.056641"/>
      <use xlink:href="#DejaVuSans-32" x="446.679688"/>
      <use xlink:href="#DejaVuSans-36" x="510.302734"/>
      <use xlink:href="#DejaVuSans-31" x="573.925781"/>
      <use xlink:href="#DejaVuSans-34" x="637.548828"/>
      <use xlink:href="#DejaVuSans-39" x="701.171875"/>
      <use xlink:href="#DejaVuSans-2e" x="764.794922"/>
      <use xlink:href="#DejaVuSans-30" x="796.582031"/>
      <use xlink:href="#DejaVuSans-31" x="860.205078"/>
     </g>
    </g>
   </g>
  </g>
 </g>
 <defs>
  <clipPath id="p3275be5b49">
   <rect x="33.169688" y="25.878125" width="446.4" height="332.64"/>
  </clipPath>
 </defs>
</svg>
