<?xml version="1.0" encoding="utf-8" standalone="no"?>
<!DOCTYPE svg PUBLIC "-//W3C//DTD SVG 1.1//EN"
  "http://www.w3.org/Graphics/SVG/1.1/DTD/svg11.dtd">
<svg xmlns:xlink="http://www.w3.org/1999/xlink" width="486.769687pt" height="377.492812pt" viewBox="0 0 486.769687 377.492812" xmlns="http://www.w3.org/2000/svg" version="1.1">
 <metadata>
  <rdf:RDF xmlns:dc="http://purl.org/dc/elements/1.1/" xmlns:cc="http://creativecommons.org/ns#" xmlns:rdf="http://www.w3.org/1999/02/22-rdf-syntax-ns#">
   <cc:Work>
    <dc:type rdf:resource="http://purl.org/dc/dcmitype/StillImage"/>
    <dc:date>2023-04-11T03:31:05.558484</dc:date>
    <dc:format>image/svg+xml</dc:format>
    <dc:creator>
     <cc:Agent>
      <dc:title>Matplotlib v3.7.1, https://matplotlib.org/</dc:title>
     </cc:Agent>
    </dc:creator>
   </cc:Work>
  </rdf:RDF>
 </metadata>
 <defs>
  <style type="text/css">*{stroke-linejoin: round; stroke-linecap: butt}</style>
 </defs>
 <g id="figure_1">
  <g id="patch_1">
   <path d="M 0 377.492812 
L 486.769687 377.492812 
L 486.769687 0 
L 0 0 
L 0 377.492812 
z
" style="fill: none"/>
  </g>
  <g id="axes_1">
   <g id="patch_2">
    <path d="M 33.169688 351.179062 
L 479.569687 351.179062 
L 479.569687 18.539062 
L 33.169688 18.539062 
L 33.169688 351.179062 
z
" style="fill: none"/>
   </g>
   <g id="patch_3">
    <path d="M 105.0292 351.179062 
L 105.0292 18.539062 
L 409.887736 18.539062 
L 409.887736 351.179062 
z
" clip-path="url(#p1e032b020a)" style="opacity: 0.2"/>
   </g>
   <g id="matplotlib.axis_1">
    <g id="xtick_1">
     <g id="line2d_1">
      <path d="M 37.52483 351.179062 
L 37.52483 18.539062 
" clip-path="url(#p1e032b020a)" style="fill: none; stroke: #b0b0b0; stroke-width: 0.8; stroke-linecap: square"/>
     </g>
     <g id="line2d_2">
      <defs>
       <path id="mcb1a698cc1" d="M 0 0 
L 0 -3.5 
" style="stroke: #000000; stroke-width: 0.8"/>
      </defs>
      <g>
       <use xlink:href="#mcb1a698cc1" x="37.52483" y="351.179062" style="stroke: #000000; stroke-width: 0.8"/>
      </g>
     </g>
     <g id="text_1">
      <!-- 15 -->
      <g transform="translate(33.70733 359.238125) scale(0.06 -0.06)">
       <defs>
        <path id="DejaVuSans-31" d="M 794 531 
L 1825 531 
L 1825 4091 
L 703 3866 
L 703 4441 
L 1819 4666 
L 2450 4666 
L 2450 531 
L 3481 531 
L 3481 0 
L 794 0 
L 794 531 
z
" transform="scale(0.015625)"/>
        <path id="DejaVuSans-35" d="M 691 4666 
L 3169 4666 
L 3169 4134 
L 1269 4134 
L 1269 2991 
Q 1406 3038 1543 3061 
Q 1681 3084 1819 3084 
Q 2600 3084 3056 2656 
Q 3513 2228 3513 1497 
Q 3513 744 3044 326 
Q 2575 -91 1722 -91 
Q 1428 -91 1123 -41 
Q 819 9 494 109 
L 494 744 
Q 775 591 1075 516 
Q 1375 441 1709 441 
Q 2250 441 2565 725 
Q 2881 1009 2881 1497 
Q 2881 1984 2565 2268 
Q 2250 2553 1709 2553 
Q 1456 2553 1204 2497 
Q 953 2441 691 2322 
L 691 4666 
z
" transform="scale(0.015625)"/>
       </defs>
       <use xlink:href="#DejaVuSans-31"/>
       <use xlink:href="#DejaVuSans-35" x="63.623047"/>
      </g>
     </g>
    </g>
    <g id="xtick_2">
     <g id="line2d_3">
      <path d="M 81.076052 351.179062 
L 81.076052 18.539062 
" clip-path="url(#p1e032b020a)" style="fill: none; stroke: #b0b0b0; stroke-width: 0.8; stroke-linecap: square"/>
     </g>
     <g id="line2d_4">
      <g>
       <use xlink:href="#mcb1a698cc1" x="81.076052" y="351.179062" style="stroke: #000000; stroke-width: 0.8"/>
      </g>
     </g>
     <g id="text_2">
      <!-- 16 -->
      <g transform="translate(77.258552 359.238125) scale(0.06 -0.06)">
       <defs>
        <path id="DejaVuSans-36" d="M 2113 2584 
Q 1688 2584 1439 2293 
Q 1191 2003 1191 1497 
Q 1191 994 1439 701 
Q 1688 409 2113 409 
Q 2538 409 2786 701 
Q 3034 994 3034 1497 
Q 3034 2003 2786 2293 
Q 2538 2584 2113 2584 
z
M 3366 4563 
L 3366 3988 
Q 3128 4100 2886 4159 
Q 2644 4219 2406 4219 
Q 1781 4219 1451 3797 
Q 1122 3375 1075 2522 
Q 1259 2794 1537 2939 
Q 1816 3084 2150 3084 
Q 2853 3084 3261 2657 
Q 3669 2231 3669 1497 
Q 3669 778 3244 343 
Q 2819 -91 2113 -91 
Q 1303 -91 875 529 
Q 447 1150 447 2328 
Q 447 3434 972 4092 
Q 1497 4750 2381 4750 
Q 2619 4750 2861 4703 
Q 3103 4656 3366 4563 
z
" transform="scale(0.015625)"/>
       </defs>
       <use xlink:href="#DejaVuSans-31"/>
       <use xlink:href="#DejaVuSans-36" x="63.623047"/>
      </g>
     </g>
    </g>
    <g id="xtick_3">
     <g id="line2d_5">
      <path d="M 124.627274 351.179062 
L 124.627274 18.539062 
" clip-path="url(#p1e032b020a)" style="fill: none; stroke: #b0b0b0; stroke-width: 0.8; stroke-linecap: square"/>
     </g>
     <g id="line2d_6">
      <g>
       <use xlink:href="#mcb1a698cc1" x="124.627274" y="351.179062" style="stroke: #000000; stroke-width: 0.8"/>
      </g>
     </g>
     <g id="text_3">
      <!-- 17 -->
      <g transform="translate(120.809774 359.238125) scale(0.06 -0.06)">
       <defs>
        <path id="DejaVuSans-37" d="M 525 4666 
L 3525 4666 
L 3525 4397 
L 1831 0 
L 1172 0 
L 2766 4134 
L 525 4134 
L 525 4666 
z
" transform="scale(0.015625)"/>
       </defs>
       <use xlink:href="#DejaVuSans-31"/>
       <use xlink:href="#DejaVuSans-37" x="63.623047"/>
      </g>
     </g>
    </g>
    <g id="xtick_4">
     <g id="line2d_7">
      <path d="M 168.178497 351.179062 
L 168.178497 18.539062 
" clip-path="url(#p1e032b020a)" style="fill: none; stroke: #b0b0b0; stroke-width: 0.8; stroke-linecap: square"/>
     </g>
     <g id="line2d_8">
      <g>
       <use xlink:href="#mcb1a698cc1" x="168.178497" y="351.179062" style="stroke: #000000; stroke-width: 0.8"/>
      </g>
     </g>
     <g id="text_4">
      <!-- 18 -->
      <g transform="translate(164.360997 359.238125) scale(0.06 -0.06)">
       <defs>
        <path id="DejaVuSans-38" d="M 2034 2216 
Q 1584 2216 1326 1975 
Q 1069 1734 1069 1313 
Q 1069 891 1326 650 
Q 1584 409 2034 409 
Q 2484 409 2743 651 
Q 3003 894 3003 1313 
Q 3003 1734 2745 1975 
Q 2488 2216 2034 2216 
z
M 1403 2484 
Q 997 2584 770 2862 
Q 544 3141 544 3541 
Q 544 4100 942 4425 
Q 1341 4750 2034 4750 
Q 2731 4750 3128 4425 
Q 3525 4100 3525 3541 
Q 3525 3141 3298 2862 
Q 3072 2584 2669 2484 
Q 3125 2378 3379 2068 
Q 3634 1759 3634 1313 
Q 3634 634 3220 271 
Q 2806 -91 2034 -91 
Q 1263 -91 848 271 
Q 434 634 434 1313 
Q 434 1759 690 2068 
Q 947 2378 1403 2484 
z
M 1172 3481 
Q 1172 3119 1398 2916 
Q 1625 2713 2034 2713 
Q 2441 2713 2670 2916 
Q 2900 3119 2900 3481 
Q 2900 3844 2670 4047 
Q 2441 4250 2034 4250 
Q 1625 4250 1398 4047 
Q 1172 3844 1172 3481 
z
" transform="scale(0.015625)"/>
       </defs>
       <use xlink:href="#DejaVuSans-31"/>
       <use xlink:href="#DejaVuSans-38" x="63.623047"/>
      </g>
     </g>
    </g>
    <g id="xtick_5">
     <g id="line2d_9">
      <path d="M 211.729719 351.179062 
L 211.729719 18.539062 
" clip-path="url(#p1e032b020a)" style="fill: none; stroke: #b0b0b0; stroke-width: 0.8; stroke-linecap: square"/>
     </g>
     <g id="line2d_10">
      <g>
       <use xlink:href="#mcb1a698cc1" x="211.729719" y="351.179062" style="stroke: #000000; stroke-width: 0.8"/>
      </g>
     </g>
     <g id="text_5">
      <!-- 19 -->
      <g transform="translate(207.912219 359.238125) scale(0.06 -0.06)">
       <defs>
        <path id="DejaVuSans-39" d="M 703 97 
L 703 672 
Q 941 559 1184 500 
Q 1428 441 1663 441 
Q 2288 441 2617 861 
Q 2947 1281 2994 2138 
Q 2813 1869 2534 1725 
Q 2256 1581 1919 1581 
Q 1219 1581 811 2004 
Q 403 2428 403 3163 
Q 403 3881 828 4315 
Q 1253 4750 1959 4750 
Q 2769 4750 3195 4129 
Q 3622 3509 3622 2328 
Q 3622 1225 3098 567 
Q 2575 -91 1691 -91 
Q 1453 -91 1209 -44 
Q 966 3 703 97 
z
M 1959 2075 
Q 2384 2075 2632 2365 
Q 2881 2656 2881 3163 
Q 2881 3666 2632 3958 
Q 2384 4250 1959 4250 
Q 1534 4250 1286 3958 
Q 1038 3666 1038 3163 
Q 1038 2656 1286 2365 
Q 1534 2075 1959 2075 
z
" transform="scale(0.015625)"/>
       </defs>
       <use xlink:href="#DejaVuSans-31"/>
       <use xlink:href="#DejaVuSans-39" x="63.623047"/>
      </g>
     </g>
    </g>
    <g id="xtick_6">
     <g id="line2d_11">
      <path d="M 255.280941 351.179062 
L 255.280941 18.539062 
" clip-path="url(#p1e032b020a)" style="fill: none; stroke: #b0b0b0; stroke-width: 0.8; stroke-linecap: square"/>
     </g>
     <g id="line2d_12">
      <g>
       <use xlink:href="#mcb1a698cc1" x="255.280941" y="351.179062" style="stroke: #000000; stroke-width: 0.8"/>
      </g>
     </g>
     <g id="text_6">
      <!-- 20 -->
      <g transform="translate(251.463441 359.238125) scale(0.06 -0.06)">
       <defs>
        <path id="DejaVuSans-32" d="M 1228 531 
L 3431 531 
L 3431 0 
L 469 0 
L 469 531 
Q 828 903 1448 1529 
Q 2069 2156 2228 2338 
Q 2531 2678 2651 2914 
Q 2772 3150 2772 3378 
Q 2772 3750 2511 3984 
Q 2250 4219 1831 4219 
Q 1534 4219 1204 4116 
Q 875 4013 500 3803 
L 500 4441 
Q 881 4594 1212 4672 
Q 1544 4750 1819 4750 
Q 2544 4750 2975 4387 
Q 3406 4025 3406 3419 
Q 3406 3131 3298 2873 
Q 3191 2616 2906 2266 
Q 2828 2175 2409 1742 
Q 1991 1309 1228 531 
z
" transform="scale(0.015625)"/>
        <path id="DejaVuSans-30" d="M 2034 4250 
Q 1547 4250 1301 3770 
Q 1056 3291 1056 2328 
Q 1056 1369 1301 889 
Q 1547 409 2034 409 
Q 2525 409 2770 889 
Q 3016 1369 3016 2328 
Q 3016 3291 2770 3770 
Q 2525 4250 2034 4250 
z
M 2034 4750 
Q 2819 4750 3233 4129 
Q 3647 3509 3647 2328 
Q 3647 1150 3233 529 
Q 2819 -91 2034 -91 
Q 1250 -91 836 529 
Q 422 1150 422 2328 
Q 422 3509 836 4129 
Q 1250 4750 2034 4750 
z
" transform="scale(0.015625)"/>
       </defs>
       <use xlink:href="#DejaVuSans-32"/>
       <use xlink:href="#DejaVuSans-30" x="63.623047"/>
      </g>
     </g>
    </g>
    <g id="xtick_7">
     <g id="line2d_13">
      <path d="M 298.832163 351.179062 
L 298.832163 18.539062 
" clip-path="url(#p1e032b020a)" style="fill: none; stroke: #b0b0b0; stroke-width: 0.8; stroke-linecap: square"/>
     </g>
     <g id="line2d_14">
      <g>
       <use xlink:href="#mcb1a698cc1" x="298.832163" y="351.179062" style="stroke: #000000; stroke-width: 0.8"/>
      </g>
     </g>
     <g id="text_7">
      <!-- 21 -->
      <g transform="translate(295.014663 359.238125) scale(0.06 -0.06)">
       <use xlink:href="#DejaVuSans-32"/>
       <use xlink:href="#DejaVuSans-31" x="63.623047"/>
      </g>
     </g>
    </g>
    <g id="xtick_8">
     <g id="line2d_15">
      <path d="M 342.383385 351.179062 
L 342.383385 18.539062 
" clip-path="url(#p1e032b020a)" style="fill: none; stroke: #b0b0b0; stroke-width: 0.8; stroke-linecap: square"/>
     </g>
     <g id="line2d_16">
      <g>
       <use xlink:href="#mcb1a698cc1" x="342.383385" y="351.179062" style="stroke: #000000; stroke-width: 0.8"/>
      </g>
     </g>
     <g id="text_8">
      <!-- 22 -->
      <g transform="translate(338.565885 359.238125) scale(0.06 -0.06)">
       <use xlink:href="#DejaVuSans-32"/>
       <use xlink:href="#DejaVuSans-32" x="63.623047"/>
      </g>
     </g>
    </g>
    <g id="xtick_9">
     <g id="line2d_17">
      <path d="M 385.934607 351.179062 
L 385.934607 18.539062 
" clip-path="url(#p1e032b020a)" style="fill: none; stroke: #b0b0b0; stroke-width: 0.8; stroke-linecap: square"/>
     </g>
     <g id="line2d_18">
      <g>
       <use xlink:href="#mcb1a698cc1" x="385.934607" y="351.179062" style="stroke: #000000; stroke-width: 0.8"/>
      </g>
     </g>
     <g id="text_9">
      <!-- 23 -->
      <g transform="translate(382.117107 359.238125) scale(0.06 -0.06)">
       <defs>
        <path id="DejaVuSans-33" d="M 2597 2516 
Q 3050 2419 3304 2112 
Q 3559 1806 3559 1356 
Q 3559 666 3084 287 
Q 2609 -91 1734 -91 
Q 1441 -91 1130 -33 
Q 819 25 488 141 
L 488 750 
Q 750 597 1062 519 
Q 1375 441 1716 441 
Q 2309 441 2620 675 
Q 2931 909 2931 1356 
Q 2931 1769 2642 2001 
Q 2353 2234 1838 2234 
L 1294 2234 
L 1294 2753 
L 1863 2753 
Q 2328 2753 2575 2939 
Q 2822 3125 2822 3475 
Q 2822 3834 2567 4026 
Q 2313 4219 1838 4219 
Q 1578 4219 1281 4162 
Q 984 4106 628 3988 
L 628 4550 
Q 988 4650 1302 4700 
Q 1616 4750 1894 4750 
Q 2613 4750 3031 4423 
Q 3450 4097 3450 3541 
Q 3450 3153 3228 2886 
Q 3006 2619 2597 2516 
z
" transform="scale(0.015625)"/>
       </defs>
       <use xlink:href="#DejaVuSans-32"/>
       <use xlink:href="#DejaVuSans-33" x="63.623047"/>
      </g>
     </g>
    </g>
    <g id="xtick_10">
     <g id="line2d_19">
      <path d="M 429.485829 351.179062 
L 429.485829 18.539062 
" clip-path="url(#p1e032b020a)" style="fill: none; stroke: #b0b0b0; stroke-width: 0.8; stroke-linecap: square"/>
     </g>
     <g id="line2d_20">
      <g>
       <use xlink:href="#mcb1a698cc1" x="429.485829" y="351.179062" style="stroke: #000000; stroke-width: 0.8"/>
      </g>
     </g>
     <g id="text_10">
      <!-- 00 -->
      <g transform="translate(425.668329 359.238125) scale(0.06 -0.06)">
       <use xlink:href="#DejaVuSans-30"/>
       <use xlink:href="#DejaVuSans-30" x="63.623047"/>
      </g>
     </g>
    </g>
    <g id="xtick_11">
     <g id="line2d_21">
      <path d="M 473.037051 351.179062 
L 473.037051 18.539062 
" clip-path="url(#p1e032b020a)" style="fill: none; stroke: #b0b0b0; stroke-width: 0.8; stroke-linecap: square"/>
     </g>
     <g id="line2d_22">
      <g>
       <use xlink:href="#mcb1a698cc1" x="473.037051" y="351.179062" style="stroke: #000000; stroke-width: 0.8"/>
      </g>
     </g>
     <g id="text_11">
      <!-- 01 -->
      <g transform="translate(469.219551 359.238125) scale(0.06 -0.06)">
       <use xlink:href="#DejaVuSans-30"/>
       <use xlink:href="#DejaVuSans-31" x="63.623047"/>
      </g>
     </g>
    </g>
    <g id="text_12">
     <!-- UTC, 2023-04-10 -->
     <g transform="translate(231.081562 369.045) scale(0.06 -0.06)">
      <defs>
       <path id="DejaVuSans-55" d="M 556 4666 
L 1191 4666 
L 1191 1831 
Q 1191 1081 1462 751 
Q 1734 422 2344 422 
Q 2950 422 3222 751 
Q 3494 1081 3494 1831 
L 3494 4666 
L 4128 4666 
L 4128 1753 
Q 4128 841 3676 375 
Q 3225 -91 2344 -91 
Q 1459 -91 1007 375 
Q 556 841 556 1753 
L 556 4666 
z
" transform="scale(0.015625)"/>
       <path id="DejaVuSans-54" d="M -19 4666 
L 3928 4666 
L 3928 4134 
L 2272 4134 
L 2272 0 
L 1638 0 
L 1638 4134 
L -19 4134 
L -19 4666 
z
" transform="scale(0.015625)"/>
       <path id="DejaVuSans-43" d="M 4122 4306 
L 4122 3641 
Q 3803 3938 3442 4084 
Q 3081 4231 2675 4231 
Q 1875 4231 1450 3742 
Q 1025 3253 1025 2328 
Q 1025 1406 1450 917 
Q 1875 428 2675 428 
Q 3081 428 3442 575 
Q 3803 722 4122 1019 
L 4122 359 
Q 3791 134 3420 21 
Q 3050 -91 2638 -91 
Q 1578 -91 968 557 
Q 359 1206 359 2328 
Q 359 3453 968 4101 
Q 1578 4750 2638 4750 
Q 3056 4750 3426 4639 
Q 3797 4528 4122 4306 
z
" transform="scale(0.015625)"/>
       <path id="DejaVuSans-2c" d="M 750 794 
L 1409 794 
L 1409 256 
L 897 -744 
L 494 -744 
L 750 256 
L 750 794 
z
" transform="scale(0.015625)"/>
       <path id="DejaVuSans-20" transform="scale(0.015625)"/>
       <path id="DejaVuSans-2d" d="M 313 2009 
L 1997 2009 
L 1997 1497 
L 313 1497 
L 313 2009 
z
" transform="scale(0.015625)"/>
       <path id="DejaVuSans-34" d="M 2419 4116 
L 825 1625 
L 2419 1625 
L 2419 4116 
z
M 2253 4666 
L 3047 4666 
L 3047 1625 
L 3713 1625 
L 3713 1100 
L 3047 1100 
L 3047 0 
L 2419 0 
L 2419 1100 
L 313 1100 
L 313 1709 
L 2253 4666 
z
" transform="scale(0.015625)"/>
      </defs>
      <use xlink:href="#DejaVuSans-55"/>
      <use xlink:href="#DejaVuSans-54" x="73.193359"/>
      <use xlink:href="#DejaVuSans-43" x="128.402344"/>
      <use xlink:href="#DejaVuSans-2c" x="198.226562"/>
      <use xlink:href="#DejaVuSans-20" x="230.013672"/>
      <use xlink:href="#DejaVuSans-32" x="261.800781"/>
      <use xlink:href="#DejaVuSans-30" x="325.423828"/>
      <use xlink:href="#DejaVuSans-32" x="389.046875"/>
      <use xlink:href="#DejaVuSans-33" x="452.669922"/>
      <use xlink:href="#DejaVuSans-2d" x="516.292969"/>
      <use xlink:href="#DejaVuSans-30" x="552.376953"/>
      <use xlink:href="#DejaVuSans-34" x="616"/>
      <use xlink:href="#DejaVuSans-2d" x="679.623047"/>
      <use xlink:href="#DejaVuSans-31" x="715.707031"/>
      <use xlink:href="#DejaVuSans-30" x="779.330078"/>
     </g>
    </g>
   </g>
   <g id="matplotlib.axis_2">
    <g id="ytick_1">
     <g id="line2d_23">
      <path d="M 33.169688 351.179062 
L 479.569687 351.179062 
" clip-path="url(#p1e032b020a)" style="fill: none; stroke: #b0b0b0; stroke-width: 0.8; stroke-linecap: square"/>
     </g>
     <g id="line2d_24">
      <defs>
       <path id="m55270bad51" d="M 0 0 
L 3.5 0 
" style="stroke: #000000; stroke-width: 0.8"/>
      </defs>
      <g>
       <use xlink:href="#m55270bad51" x="33.169688" y="351.179062" style="stroke: #000000; stroke-width: 0.8"/>
      </g>
     </g>
     <g id="text_13">
      <!-- −20 -->
      <g transform="translate(17.006875 353.458594) scale(0.06 -0.06)">
       <defs>
        <path id="DejaVuSans-2212" d="M 678 2272 
L 4684 2272 
L 4684 1741 
L 678 1741 
L 678 2272 
z
" transform="scale(0.015625)"/>
       </defs>
       <use xlink:href="#DejaVuSans-2212"/>
       <use xlink:href="#DejaVuSans-32" x="83.789062"/>
       <use xlink:href="#DejaVuSans-30" x="147.412109"/>
      </g>
     </g>
    </g>
    <g id="ytick_2">
     <g id="line2d_25">
      <path d="M 33.169688 313.982699 
L 479.569687 313.982699 
" clip-path="url(#p1e032b020a)" style="fill: none; stroke: #b0b0b0; stroke-width: 0.8; stroke-linecap: square"/>
     </g>
     <g id="line2d_26">
      <g>
       <use xlink:href="#m55270bad51" x="33.169688" y="313.982699" style="stroke: #000000; stroke-width: 0.8"/>
      </g>
     </g>
     <g id="text_14">
      <!-- −10 -->
      <g transform="translate(17.006875 316.26223) scale(0.06 -0.06)">
       <use xlink:href="#DejaVuSans-2212"/>
       <use xlink:href="#DejaVuSans-31" x="83.789062"/>
       <use xlink:href="#DejaVuSans-30" x="147.412109"/>
      </g>
     </g>
    </g>
    <g id="ytick_3">
     <g id="line2d_27">
      <path d="M 33.169688 276.786335 
L 479.569687 276.786335 
" clip-path="url(#p1e032b020a)" style="fill: none; stroke: #b0b0b0; stroke-width: 0.8; stroke-linecap: square"/>
     </g>
     <g id="line2d_28">
      <g>
       <use xlink:href="#m55270bad51" x="33.169688" y="276.786335" style="stroke: #000000; stroke-width: 0.8"/>
      </g>
     </g>
     <g id="text_15">
      <!-- 0 -->
      <g transform="translate(25.852188 279.065866) scale(0.06 -0.06)">
       <use xlink:href="#DejaVuSans-30"/>
      </g>
     </g>
    </g>
    <g id="ytick_4">
     <g id="line2d_29">
      <path d="M 33.169688 239.589971 
L 479.569687 239.589971 
" clip-path="url(#p1e032b020a)" style="fill: none; stroke: #b0b0b0; stroke-width: 0.8; stroke-linecap: square"/>
     </g>
     <g id="line2d_30">
      <g>
       <use xlink:href="#m55270bad51" x="33.169688" y="239.589971" style="stroke: #000000; stroke-width: 0.8"/>
      </g>
     </g>
     <g id="text_16">
      <!-- 10 -->
      <g transform="translate(22.034688 241.869502) scale(0.06 -0.06)">
       <use xlink:href="#DejaVuSans-31"/>
       <use xlink:href="#DejaVuSans-30" x="63.623047"/>
      </g>
     </g>
    </g>
    <g id="ytick_5">
     <g id="line2d_31">
      <path d="M 33.169688 202.393607 
L 479.569687 202.393607 
" clip-path="url(#p1e032b020a)" style="fill: none; stroke: #b0b0b0; stroke-width: 0.8; stroke-linecap: square"/>
     </g>
     <g id="line2d_32">
      <g>
       <use xlink:href="#m55270bad51" x="33.169688" y="202.393607" style="stroke: #000000; stroke-width: 0.8"/>
      </g>
     </g>
     <g id="text_17">
      <!-- 20 -->
      <g transform="translate(22.034688 204.673138) scale(0.06 -0.06)">
       <use xlink:href="#DejaVuSans-32"/>
       <use xlink:href="#DejaVuSans-30" x="63.623047"/>
      </g>
     </g>
    </g>
    <g id="ytick_6">
     <g id="line2d_33">
      <path d="M 33.169688 165.197243 
L 479.569687 165.197243 
" clip-path="url(#p1e032b020a)" style="fill: none; stroke: #b0b0b0; stroke-width: 0.8; stroke-linecap: square"/>
     </g>
     <g id="line2d_34">
      <g>
       <use xlink:href="#m55270bad51" x="33.169688" y="165.197243" style="stroke: #000000; stroke-width: 0.8"/>
      </g>
     </g>
     <g id="text_18">
      <!-- 30 -->
      <g transform="translate(22.034688 167.476774) scale(0.06 -0.06)">
       <use xlink:href="#DejaVuSans-33"/>
       <use xlink:href="#DejaVuSans-30" x="63.623047"/>
      </g>
     </g>
    </g>
    <g id="ytick_7">
     <g id="line2d_35">
      <path d="M 33.169688 128.000879 
L 479.569687 128.000879 
" clip-path="url(#p1e032b020a)" style="fill: none; stroke: #b0b0b0; stroke-width: 0.8; stroke-linecap: square"/>
     </g>
     <g id="line2d_36">
      <g>
       <use xlink:href="#m55270bad51" x="33.169688" y="128.000879" style="stroke: #000000; stroke-width: 0.8"/>
      </g>
     </g>
     <g id="text_19">
      <!-- 40 -->
      <g transform="translate(22.034688 130.28041) scale(0.06 -0.06)">
       <use xlink:href="#DejaVuSans-34"/>
       <use xlink:href="#DejaVuSans-30" x="63.623047"/>
      </g>
     </g>
    </g>
    <g id="ytick_8">
     <g id="line2d_37">
      <path d="M 33.169688 90.804515 
L 479.569687 90.804515 
" clip-path="url(#p1e032b020a)" style="fill: none; stroke: #b0b0b0; stroke-width: 0.8; stroke-linecap: square"/>
     </g>
     <g id="line2d_38">
      <g>
       <use xlink:href="#m55270bad51" x="33.169688" y="90.804515" style="stroke: #000000; stroke-width: 0.8"/>
      </g>
     </g>
     <g id="text_20">
      <!-- 50 -->
      <g transform="translate(22.034688 93.084046) scale(0.06 -0.06)">
       <use xlink:href="#DejaVuSans-35"/>
       <use xlink:href="#DejaVuSans-30" x="63.623047"/>
      </g>
     </g>
    </g>
    <g id="ytick_9">
     <g id="line2d_39">
      <path d="M 33.169688 53.608151 
L 479.569687 53.608151 
" clip-path="url(#p1e032b020a)" style="fill: none; stroke: #b0b0b0; stroke-width: 0.8; stroke-linecap: square"/>
     </g>
     <g id="line2d_40">
      <g>
       <use xlink:href="#m55270bad51" x="33.169688" y="53.608151" style="stroke: #000000; stroke-width: 0.8"/>
      </g>
     </g>
     <g id="text_21">
      <!-- 60 -->
      <g transform="translate(22.034688 55.887682) scale(0.06 -0.06)">
       <use xlink:href="#DejaVuSans-36"/>
       <use xlink:href="#DejaVuSans-30" x="63.623047"/>
      </g>
     </g>
    </g>
    <g id="text_22">
     <!-- Elevation (deg) -->
     <g transform="translate(11.759063 207.743906) rotate(-90) scale(0.06 -0.06)">
      <defs>
       <path id="DejaVuSans-45" d="M 628 4666 
L 3578 4666 
L 3578 4134 
L 1259 4134 
L 1259 2753 
L 3481 2753 
L 3481 2222 
L 1259 2222 
L 1259 531 
L 3634 531 
L 3634 0 
L 628 0 
L 628 4666 
z
" transform="scale(0.015625)"/>
       <path id="DejaVuSans-6c" d="M 603 4863 
L 1178 4863 
L 1178 0 
L 603 0 
L 603 4863 
z
" transform="scale(0.015625)"/>
       <path id="DejaVuSans-65" d="M 3597 1894 
L 3597 1613 
L 953 1613 
Q 991 1019 1311 708 
Q 1631 397 2203 397 
Q 2534 397 2845 478 
Q 3156 559 3463 722 
L 3463 178 
Q 3153 47 2828 -22 
Q 2503 -91 2169 -91 
Q 1331 -91 842 396 
Q 353 884 353 1716 
Q 353 2575 817 3079 
Q 1281 3584 2069 3584 
Q 2775 3584 3186 3129 
Q 3597 2675 3597 1894 
z
M 3022 2063 
Q 3016 2534 2758 2815 
Q 2500 3097 2075 3097 
Q 1594 3097 1305 2825 
Q 1016 2553 972 2059 
L 3022 2063 
z
" transform="scale(0.015625)"/>
       <path id="DejaVuSans-76" d="M 191 3500 
L 800 3500 
L 1894 563 
L 2988 3500 
L 3597 3500 
L 2284 0 
L 1503 0 
L 191 3500 
z
" transform="scale(0.015625)"/>
       <path id="DejaVuSans-61" d="M 2194 1759 
Q 1497 1759 1228 1600 
Q 959 1441 959 1056 
Q 959 750 1161 570 
Q 1363 391 1709 391 
Q 2188 391 2477 730 
Q 2766 1069 2766 1631 
L 2766 1759 
L 2194 1759 
z
M 3341 1997 
L 3341 0 
L 2766 0 
L 2766 531 
Q 2569 213 2275 61 
Q 1981 -91 1556 -91 
Q 1019 -91 701 211 
Q 384 513 384 1019 
Q 384 1609 779 1909 
Q 1175 2209 1959 2209 
L 2766 2209 
L 2766 2266 
Q 2766 2663 2505 2880 
Q 2244 3097 1772 3097 
Q 1472 3097 1187 3025 
Q 903 2953 641 2809 
L 641 3341 
Q 956 3463 1253 3523 
Q 1550 3584 1831 3584 
Q 2591 3584 2966 3190 
Q 3341 2797 3341 1997 
z
" transform="scale(0.015625)"/>
       <path id="DejaVuSans-74" d="M 1172 4494 
L 1172 3500 
L 2356 3500 
L 2356 3053 
L 1172 3053 
L 1172 1153 
Q 1172 725 1289 603 
Q 1406 481 1766 481 
L 2356 481 
L 2356 0 
L 1766 0 
Q 1100 0 847 248 
Q 594 497 594 1153 
L 594 3053 
L 172 3053 
L 172 3500 
L 594 3500 
L 594 4494 
L 1172 4494 
z
" transform="scale(0.015625)"/>
       <path id="DejaVuSans-69" d="M 603 3500 
L 1178 3500 
L 1178 0 
L 603 0 
L 603 3500 
z
M 603 4863 
L 1178 4863 
L 1178 4134 
L 603 4134 
L 603 4863 
z
" transform="scale(0.015625)"/>
       <path id="DejaVuSans-6f" d="M 1959 3097 
Q 1497 3097 1228 2736 
Q 959 2375 959 1747 
Q 959 1119 1226 758 
Q 1494 397 1959 397 
Q 2419 397 2687 759 
Q 2956 1122 2956 1747 
Q 2956 2369 2687 2733 
Q 2419 3097 1959 3097 
z
M 1959 3584 
Q 2709 3584 3137 3096 
Q 3566 2609 3566 1747 
Q 3566 888 3137 398 
Q 2709 -91 1959 -91 
Q 1206 -91 779 398 
Q 353 888 353 1747 
Q 353 2609 779 3096 
Q 1206 3584 1959 3584 
z
" transform="scale(0.015625)"/>
       <path id="DejaVuSans-6e" d="M 3513 2113 
L 3513 0 
L 2938 0 
L 2938 2094 
Q 2938 2591 2744 2837 
Q 2550 3084 2163 3084 
Q 1697 3084 1428 2787 
Q 1159 2491 1159 1978 
L 1159 0 
L 581 0 
L 581 3500 
L 1159 3500 
L 1159 2956 
Q 1366 3272 1645 3428 
Q 1925 3584 2291 3584 
Q 2894 3584 3203 3211 
Q 3513 2838 3513 2113 
z
" transform="scale(0.015625)"/>
       <path id="DejaVuSans-28" d="M 1984 4856 
Q 1566 4138 1362 3434 
Q 1159 2731 1159 2009 
Q 1159 1288 1364 580 
Q 1569 -128 1984 -844 
L 1484 -844 
Q 1016 -109 783 600 
Q 550 1309 550 2009 
Q 550 2706 781 3412 
Q 1013 4119 1484 4856 
L 1984 4856 
z
" transform="scale(0.015625)"/>
       <path id="DejaVuSans-64" d="M 2906 2969 
L 2906 4863 
L 3481 4863 
L 3481 0 
L 2906 0 
L 2906 525 
Q 2725 213 2448 61 
Q 2172 -91 1784 -91 
Q 1150 -91 751 415 
Q 353 922 353 1747 
Q 353 2572 751 3078 
Q 1150 3584 1784 3584 
Q 2172 3584 2448 3432 
Q 2725 3281 2906 2969 
z
M 947 1747 
Q 947 1113 1208 752 
Q 1469 391 1925 391 
Q 2381 391 2643 752 
Q 2906 1113 2906 1747 
Q 2906 2381 2643 2742 
Q 2381 3103 1925 3103 
Q 1469 3103 1208 2742 
Q 947 2381 947 1747 
z
" transform="scale(0.015625)"/>
       <path id="DejaVuSans-67" d="M 2906 1791 
Q 2906 2416 2648 2759 
Q 2391 3103 1925 3103 
Q 1463 3103 1205 2759 
Q 947 2416 947 1791 
Q 947 1169 1205 825 
Q 1463 481 1925 481 
Q 2391 481 2648 825 
Q 2906 1169 2906 1791 
z
M 3481 434 
Q 3481 -459 3084 -895 
Q 2688 -1331 1869 -1331 
Q 1566 -1331 1297 -1286 
Q 1028 -1241 775 -1147 
L 775 -588 
Q 1028 -725 1275 -790 
Q 1522 -856 1778 -856 
Q 2344 -856 2625 -561 
Q 2906 -266 2906 331 
L 2906 616 
Q 2728 306 2450 153 
Q 2172 0 1784 0 
Q 1141 0 747 490 
Q 353 981 353 1791 
Q 353 2603 747 3093 
Q 1141 3584 1784 3584 
Q 2172 3584 2450 3431 
Q 2728 3278 2906 2969 
L 2906 3500 
L 3481 3500 
L 3481 434 
z
" transform="scale(0.015625)"/>
       <path id="DejaVuSans-29" d="M 513 4856 
L 1013 4856 
Q 1481 4119 1714 3412 
Q 1947 2706 1947 2009 
Q 1947 1309 1714 600 
Q 1481 -109 1013 -844 
L 513 -844 
Q 928 -128 1133 580 
Q 1338 1288 1338 2009 
Q 1338 2731 1133 3434 
Q 928 4138 513 4856 
z
" transform="scale(0.015625)"/>
      </defs>
      <use xlink:href="#DejaVuSans-45"/>
      <use xlink:href="#DejaVuSans-6c" x="63.183594"/>
      <use xlink:href="#DejaVuSans-65" x="90.966797"/>
      <use xlink:href="#DejaVuSans-76" x="152.490234"/>
      <use xlink:href="#DejaVuSans-61" x="211.669922"/>
      <use xlink:href="#DejaVuSans-74" x="272.949219"/>
      <use xlink:href="#DejaVuSans-69" x="312.158203"/>
      <use xlink:href="#DejaVuSans-6f" x="339.941406"/>
      <use xlink:href="#DejaVuSans-6e" x="401.123047"/>
      <use xlink:href="#DejaVuSans-20" x="464.501953"/>
      <use xlink:href="#DejaVuSans-28" x="496.289062"/>
      <use xlink:href="#DejaVuSans-64" x="535.302734"/>
      <use xlink:href="#DejaVuSans-65" x="598.779297"/>
      <use xlink:href="#DejaVuSans-67" x="660.302734"/>
      <use xlink:href="#DejaVuSans-29" x="723.779297"/>
     </g>
    </g>
   </g>
   <g id="LineCollection_1">
    <path d="M -1 343.73979 
L 487.769687 343.73979 
" clip-path="url(#p1e032b020a)" style="fill: none; stroke-dasharray: 5.55,2.4; stroke-dashoffset: 0; stroke: #000000; stroke-opacity: 0.5; stroke-width: 1.5"/>
   </g>
   <g id="LineCollection_2">
    <path d="M -1 321.421971 
L 487.769687 321.421971 
" clip-path="url(#p1e032b020a)" style="fill: none; stroke-dasharray: 5.55,2.4; stroke-dashoffset: 0; stroke: #000000; stroke-opacity: 0.2; stroke-width: 1.5"/>
   </g>
   <g id="LineCollection_3">
    <path d="M -1 165.197243 
L 487.769687 165.197243 
" clip-path="url(#p1e032b020a)" style="fill: none; stroke-dasharray: 5.55,2.4; stroke-dashoffset: 0; stroke: #ff0000; stroke-opacity: 0.3; stroke-width: 1.5"/>
   </g>
   <g id="line2d_41">
    <path d="M -1 253.794961 
L 22.281883 269.814285 
L 39.70237 281.557324 
L 54.945297 291.579942 
L 68.010663 299.932337 
L 81.076029 308.021035 
L 91.963834 314.529546 
L 102.851639 320.800199 
L 113.739444 326.807212 
L 124.627248 332.524334 
L 133.337492 336.871446 
L 142.047736 341.002312 
L 150.75798 344.903247 
L 159.468224 348.560676 
L 168.178468 351.961248 
L 176.888712 355.091966 
L 185.598956 357.94033 
L 194.3092 360.49449 
L 200.841883 362.210365 
L 207.374566 363.75022 
L 213.907248 365.110103 
L 220.439931 366.286447 
L 226.972614 367.276108 
L 233.505297 368.076396 
L 240.03798 368.685105 
L 246.570663 369.100538 
L 253.103346 369.321522 
L 259.636029 369.347429 
L 266.168712 369.178175 
L 272.701395 368.814225 
L 279.234078 368.25659 
L 285.766761 367.506809 
L 292.299444 366.566936 
L 298.832127 365.439519 
L 305.364809 364.127563 
L 311.897492 362.634512 
L 318.430175 360.9642 
L 327.140419 358.468681 
L 335.850663 355.676349 
L 344.560907 352.598869 
L 353.271151 349.248592 
L 361.981395 345.638395 
L 370.691639 341.781539 
L 379.401883 337.691535 
L 388.112127 333.382023 
L 398.999931 327.707281 
L 409.887736 321.737499 
L 420.775541 315.498935 
L 431.663346 309.017393 
L 444.728712 300.954336 
L 457.794078 292.620288 
L 473.037005 282.609881 
L 487.769687 272.697265 
L 487.769687 272.697265 
" clip-path="url(#p1e032b020a)" style="fill: none; stroke-dasharray: 9.6,2.4,1.5,2.4; stroke-dashoffset: 0; stroke: #ff0000; stroke-opacity: 0.5; stroke-width: 1.5"/>
   </g>
   <g id="line2d_42">
    <path d="M 131.140243 378.492812 
L 152.935541 364.412254 
L 170.356029 353.387039 
L 185.598956 343.965256 
L 200.841883 334.800662 
L 213.907248 327.183712 
L 226.972614 319.816394 
L 240.03798 312.726777 
L 250.925785 307.051209 
L 261.81359 301.604368 
L 272.701395 296.402561 
L 283.5892 291.462022 
L 294.477005 286.798831 
L 305.364809 282.428815 
L 314.075053 279.154291 
L 322.785297 276.084992 
L 331.495541 273.228352 
L 340.205785 270.5915 
L 348.916029 268.181203 
L 357.626273 266.003817 
L 366.336517 264.065222 
L 375.046761 262.370774 
L 383.757005 260.925253 
L 392.467248 259.732807 
L 401.177492 258.796914 
L 409.887736 258.120342 
L 418.59798 257.705117 
L 427.308224 257.552499 
L 436.018468 257.66297 
L 444.728712 258.036226 
L 453.438956 258.671183 
L 462.1492 259.565991 
L 470.859444 260.718053 
L 479.569687 262.124058 
L 487.769687 263.677579 
L 487.769687 263.677579 
" clip-path="url(#p1e032b020a)" style="fill: none; stroke-dasharray: 9.6,2.4,1.5,2.4; stroke-dashoffset: 0; stroke: #0000ff; stroke-opacity: 0.5; stroke-width: 1.5"/>
   </g>
   <g id="line2d_43">
    <path d="M 109.070778 67.381707 
L 111.248339 66.404499 
L 113.4259 65.450078 
L 115.603461 64.519059 
L 117.781022 63.612064 
L 119.958583 62.729713 
L 122.136144 61.872629 
L 124.313705 61.041433 
L 126.491266 60.236744 
L 128.668827 59.459177 
L 130.846388 58.709342 
L 133.023949 57.987842 
L 135.20151 57.295271 
L 137.379071 56.632215 
L 139.556632 55.999245 
L 141.734193 55.39692 
L 143.911754 54.825783 
L 146.089315 54.286359 
L 148.266876 53.779153 
L 150.444437 53.304649 
L 152.621998 52.863308 
L 154.799559 52.455565 
L 156.97712 52.081828 
L 159.154681 51.742476 
L 161.332242 51.437859 
L 163.509803 51.168292 
L 165.687364 50.934059 
L 167.864925 50.735409 
L 170.042486 50.572552 
L 172.220046 50.445665 
L 174.397607 50.354885 
L 176.575168 50.300309 
L 178.752729 50.281998 
L 180.93029 50.299971 
L 183.107851 50.354208 
L 185.285412 50.444651 
L 187.462973 50.571202 
L 189.640534 50.733724 
L 191.818095 50.932041 
L 193.995656 51.165943 
L 196.173217 51.435182 
L 198.350778 51.739474 
L 200.528339 52.078503 
L 202.7059 52.451921 
L 204.883461 52.859349 
L 207.061022 53.300379 
L 209.238583 53.774576 
L 211.416144 54.281479 
L 213.593705 54.820606 
L 215.771266 55.39145 
L 217.948827 55.993486 
L 220.126388 56.626173 
L 222.303949 57.288952 
L 224.48151 57.98125 
L 226.659071 58.702483 
L 228.836632 59.452057 
L 231.014193 60.229369 
L 233.191754 61.033808 
L 235.369315 61.86476 
L 237.546876 62.721606 
L 239.724437 63.603725 
L 241.901998 64.510494 
L 244.079559 65.441292 
L 246.25712 66.395499 
L 248.434681 67.372498 
L 250.612242 68.371674 
" clip-path="url(#p1e032b020a)" style="fill: none; stroke-dasharray: 2,3.3; stroke-dashoffset: 0; stroke: #1f77b4; stroke-width: 2"/>
   </g>
   <g id="line2d_44">
    <path d="M 141.734195 55.39692 
L 143.911756 54.825783 
L 146.089317 54.286359 
L 148.266878 53.779153 
L 150.444439 53.304649 
L 152.622 52.863308 
L 154.799561 52.455565 
L 156.977122 52.081828 
L 159.154683 51.742476 
L 161.332244 51.437858 
L 163.509805 51.168292 
L 165.687366 50.934059 
L 167.864926 50.735408 
L 170.042487 50.572552 
L 172.220048 50.445665 
L 174.397609 50.354885 
L 176.57517 50.300309 
L 178.752731 50.281998 
L 180.930292 50.299971 
L 183.107853 50.354208 
L 185.285414 50.444652 
L 187.462975 50.571202 
L 189.640536 50.733724 
L 191.818097 50.932042 
L 193.995658 51.165944 
L 196.173219 51.435182 
L 198.35078 51.739474 
L 200.528341 52.078504 
L 202.705902 52.451922 
L 204.883463 52.85935 
L 207.061024 53.30038 
L 209.238585 53.774577 
L 211.416146 54.28148 
L 213.593707 54.820606 
L 215.771268 55.39145 
L 217.948829 55.993487 
" clip-path="url(#p1e032b020a)" style="fill: none; stroke: #1f77b4; stroke-width: 2; stroke-linecap: square"/>
   </g>
   <g id="line2d_45">
    <path d="M 111.99742 72.104162 
L 114.174981 72.7641 
L 116.352542 73.421475 
L 118.530103 74.076212 
L 120.707664 74.72824 
L 122.885225 75.377489 
L 125.062786 76.023887 
L 127.240347 76.667365 
L 129.417908 77.307856 
L 131.595469 77.945292 
L 133.77303 78.579606 
L 135.950591 79.210732 
L 138.128152 79.838606 
L 140.305713 80.463163 
L 142.483274 81.08434 
L 144.660835 81.702075 
L 146.838396 82.316305 
L 149.015957 82.92697 
L 151.193518 83.534008 
L 153.371079 84.137361 
L 155.54864 84.73697 
L 157.726201 85.332776 
L 159.903762 85.924722 
L 162.081323 86.512751 
L 164.258884 87.096806 
L 166.436445 87.676833 
L 168.614006 88.252777 
L 170.791567 88.824582 
L 172.969128 89.392197 
L 175.146689 89.955567 
L 177.324249 90.51464 
L 179.50181 91.069365 
L 181.679371 91.619691 
L 183.856932 92.165567 
L 186.034493 92.706943 
L 188.212054 93.243769 
L 190.389615 93.775998 
L 192.567176 94.303581 
L 194.744737 94.82647 
L 196.922298 95.344619 
L 199.099859 95.85798 
L 201.27742 96.366509 
L 203.454981 96.870159 
L 205.632542 97.368886 
L 207.810103 97.862646 
L 209.987664 98.351394 
L 212.165225 98.835089 
L 214.342786 99.313687 
L 216.520347 99.787146 
L 218.697908 100.255425 
L 220.875469 100.718483 
L 223.05303 101.176278 
L 225.230591 101.628773 
L 227.408152 102.075926 
L 229.585713 102.5177 
L 231.763274 102.954055 
L 233.940835 103.384955 
L 236.118396 103.810361 
L 238.295957 104.230237 
L 240.473518 104.644547 
L 242.651079 105.053255 
L 244.82864 105.456327 
L 247.006201 105.853726 
L 249.183762 106.24542 
L 251.361323 106.631374 
L 253.538884 107.011556 
L 255.716445 107.385933 
L 257.894006 107.754472 
L 260.071567 108.117144 
L 262.249128 108.473915 
L 264.426689 108.824757 
L 266.604249 109.169639 
L 268.78181 109.508531 
" clip-path="url(#p1e032b020a)" style="fill: none; stroke-dasharray: 2,3.3; stroke-dashoffset: 0; stroke: #ff7f0e; stroke-width: 2"/>
   </g>
   <g id="line2d_46">
    <path d="M 144.660837 81.702075 
L 146.838398 82.316306 
L 149.015959 82.92697 
L 151.19352 83.534009 
L 153.371081 84.137362 
L 155.548642 84.73697 
L 157.726203 85.332776 
L 159.903764 85.924722 
L 162.081325 86.512751 
L 164.258886 87.096807 
L 166.436447 87.676834 
L 168.614008 88.252777 
L 170.791569 88.824583 
L 172.969129 89.392197 
L 175.14669 89.955567 
L 177.324251 90.514641 
L 179.501812 91.069366 
L 181.679373 91.619691 
L 183.856934 92.165567 
L 186.034495 92.706943 
L 188.212056 93.24377 
L 190.389617 93.775999 
L 192.567178 94.303582 
L 194.744739 94.826471 
L 196.9223 95.344619 
L 199.099861 95.857981 
L 201.277422 96.366509 
L 203.454983 96.870159 
L 205.632544 97.368886 
L 207.810105 97.862646 
L 209.987666 98.351395 
L 212.165227 98.835089 
L 214.342788 99.313687 
L 216.520349 99.787146 
L 218.69791 100.255425 
L 220.875471 100.718483 
L 223.053032 101.176279 
L 225.230593 101.628773 
L 227.408154 102.075927 
L 229.585715 102.5177 
L 231.763276 102.954055 
L 233.940837 103.384955 
L 236.118398 103.810361 
" clip-path="url(#p1e032b020a)" style="fill: none; stroke: #ff7f0e; stroke-width: 2; stroke-linecap: square"/>
   </g>
   <g id="line2d_47">
    <path d="M 117.223567 145.988639 
L 119.401128 145.894197 
L 121.578689 145.79066 
L 123.75625 145.678038 
L 125.933811 145.55634 
L 128.111372 145.425576 
L 130.288933 145.285756 
L 132.466494 145.136892 
L 134.644055 144.978996 
L 136.821616 144.812081 
L 138.999177 144.63616 
L 141.176737 144.451248 
L 143.354298 144.25736 
L 145.531859 144.054511 
L 147.70942 143.842718 
L 149.886981 143.621998 
L 152.064542 143.392368 
L 154.242103 143.153849 
L 156.419664 142.906457 
L 158.597225 142.650214 
L 160.774786 142.385141 
L 162.952347 142.111257 
L 165.129908 141.828586 
L 167.307469 141.537149 
L 169.48503 141.236971 
L 171.662591 140.928074 
L 173.840152 140.610485 
L 176.017713 140.284227 
L 178.195274 139.949326 
L 180.372835 139.60581 
L 182.550396 139.253705 
L 184.727957 138.89304 
L 186.905518 138.523842 
L 189.083079 138.14614 
L 191.26064 137.759964 
L 193.438201 137.365345 
L 195.615762 136.962312 
L 197.793323 136.550898 
L 199.970884 136.131135 
L 202.148445 135.703054 
L 204.326006 135.266689 
L 206.503567 134.822075 
L 208.681128 134.369244 
L 210.858689 133.908232 
L 213.03625 133.439075 
L 215.213811 132.961807 
L 217.391372 132.476466 
L 219.568933 131.983089 
L 221.746494 131.481712 
L 223.924055 130.972375 
L 226.101616 130.455115 
L 228.279177 129.929971 
L 230.456737 129.396984 
L 232.634298 128.856193 
L 234.811859 128.307638 
L 236.98942 127.75136 
L 239.166981 127.187402 
L 241.344542 126.615805 
L 243.522103 126.036611 
L 245.699664 125.449863 
L 247.877225 124.855604 
L 250.054786 124.253879 
L 252.232347 123.644731 
L 254.409908 123.028206 
L 256.587469 122.404347 
L 258.76503 121.773201 
L 260.942591 121.134813 
L 263.120152 120.489231 
L 265.297713 119.8365 
L 267.475274 119.176668 
L 269.652835 118.509782 
L 271.830396 117.835891 
L 274.007957 117.155042 
L 276.185518 116.467285 
L 278.363079 115.772668 
L 280.54064 115.071242 
L 282.718201 114.363056 
L 284.895762 113.64816 
L 287.073323 112.926606 
L 289.250884 112.198444 
L 291.428445 111.463725 
L 293.606006 110.722502 
L 295.783567 109.974827 
L 297.961128 109.220752 
L 300.138689 108.460331 
L 302.31625 107.693616 
L 304.493811 106.920661 
L 306.671372 106.141521 
L 308.848933 105.356249 
L 311.026494 104.564901 
L 313.204055 103.767532 
L 315.381616 102.964197 
L 317.559177 102.154953 
L 319.736737 101.339855 
L 321.914298 100.51896 
" clip-path="url(#p1e032b020a)" style="fill: none; stroke-dasharray: 2,3.3; stroke-dashoffset: 0; stroke: #2ca02c; stroke-width: 2"/>
   </g>
   <g id="line2d_48">
    <path d="M 149.886983 143.621997 
L 152.064544 143.392368 
L 154.242105 143.153848 
L 156.419666 142.906457 
L 158.597227 142.650214 
L 160.774788 142.38514 
L 162.952349 142.111257 
L 165.12991 141.828585 
L 167.307471 141.537149 
L 169.485032 141.23697 
L 171.662593 140.928074 
L 173.840154 140.610484 
L 176.017715 140.284226 
L 178.195276 139.949326 
L 180.372837 139.60581 
L 182.550398 139.253705 
L 184.727959 138.893039 
L 186.90552 138.523841 
L 189.083081 138.146139 
L 191.260642 137.759964 
L 193.438203 137.365344 
L 195.615764 136.962312 
L 197.793325 136.550898 
L 199.970886 136.131134 
L 202.148447 135.703054 
L 204.326008 135.266689 
L 206.503569 134.822074 
L 208.68113 134.369244 
L 210.858691 133.908232 
L 213.036252 133.439074 
L 215.213813 132.961807 
L 217.391374 132.476466 
L 219.568935 131.983088 
L 221.746496 131.481712 
L 223.924057 130.972374 
L 226.101617 130.455114 
L 228.279178 129.929971 
L 230.456739 129.396984 
L 232.6343 128.856192 
L 234.811861 128.307637 
L 236.989422 127.75136 
L 239.166983 127.187402 
L 241.344544 126.615804 
L 243.522105 126.03661 
L 245.699666 125.449862 
L 247.877227 124.855604 
L 250.054788 124.253879 
L 252.232349 123.644731 
L 254.40991 123.028205 
L 256.587471 122.404346 
L 258.765032 121.7732 
L 260.942593 121.134813 
L 263.120154 120.48923 
L 265.297715 119.836499 
L 267.475276 119.176667 
L 269.652837 118.509781 
L 271.830398 117.83589 
L 274.007959 117.155041 
L 276.18552 116.467284 
L 278.363081 115.772668 
L 280.540642 115.071241 
L 282.718203 114.363055 
L 284.895764 113.64816 
L 287.073325 112.926605 
L 289.250886 112.198443 
" clip-path="url(#p1e032b020a)" style="fill: none; stroke: #2ca02c; stroke-width: 2; stroke-linecap: square"/>
   </g>
   <g id="line2d_49">
    <path d="M 166.244822 152.994242 
L 168.422383 152.214368 
L 170.599944 151.425411 
L 172.777505 150.62743 
L 174.955066 149.820483 
L 177.132627 149.00463 
L 179.310188 148.179929 
L 181.487749 147.34644 
L 183.66531 146.504222 
L 185.842871 145.653337 
L 188.020432 144.793843 
L 190.197993 143.925801 
L 192.375554 143.049273 
L 194.553115 142.164318 
L 196.730676 141.270998 
L 198.908237 140.369374 
L 201.085798 139.459507 
L 203.263359 138.541459 
L 205.44092 137.615292 
L 207.618481 136.681066 
L 209.796042 135.738845 
L 211.973603 134.78869 
L 214.151164 133.830663 
L 216.328725 132.864826 
L 218.506286 131.891242 
L 220.683847 130.909973 
L 222.861408 129.921082 
L 225.038969 128.92463 
L 227.21653 127.92068 
L 229.394091 126.909295 
L 231.571652 125.890537 
L 233.749213 124.864469 
L 235.926774 123.831153 
L 238.104335 122.790652 
L 240.281895 121.743029 
L 242.459456 120.688346 
L 244.637017 119.626664 
L 246.814578 118.558048 
L 248.992139 117.48256 
L 251.1697 116.40026 
L 253.347261 115.311213 
L 255.524822 114.215481 
L 257.702383 113.113124 
L 259.879944 112.004207 
L 262.057505 110.88879 
L 264.235066 109.766936 
L 266.412627 108.638706 
L 268.590188 107.504163 
L 270.767749 106.363369 
L 272.94531 105.216383 
L 275.122871 104.06327 
L 277.300432 102.904088 
L 279.477993 101.738901 
L 281.655554 100.567769 
L 283.833115 99.390753 
L 286.010676 98.207915 
L 288.188237 97.019314 
L 290.365798 95.825011 
L 292.543359 94.625068 
L 294.72092 93.419544 
L 296.898481 92.2085 
L 299.076042 90.991996 
L 301.253603 89.770092 
L 303.431164 88.542847 
L 305.608725 87.310322 
L 307.786286 86.072576 
L 309.963847 84.829668 
L 312.141408 83.581657 
L 314.318969 82.328603 
L 316.49653 81.070564 
L 318.674091 79.807599 
L 320.851652 78.539768 
L 323.029213 77.267127 
L 325.206774 75.989737 
L 327.384335 74.707653 
L 329.561895 73.420936 
L 331.739456 72.129642 
L 333.917017 70.83383 
L 336.094578 69.533556 
L 338.272139 68.228878 
L 340.4497 66.919854 
L 342.627261 65.60654 
L 344.804822 64.288994 
L 346.982383 62.967272 
L 349.159944 61.64143 
L 351.337505 60.311526 
L 353.515066 58.977616 
L 355.692627 57.639756 
L 357.870188 56.298002 
L 360.047749 54.95241 
L 362.22531 53.603036 
L 364.402871 52.249936 
L 366.580432 50.893165 
L 368.757993 49.532779 
L 370.935554 48.168834 
L 373.113115 46.801385 
L 375.290676 45.430487 
L 377.468237 44.056195 
L 379.645798 42.678564 
L 381.823359 41.29765 
" clip-path="url(#p1e032b020a)" style="fill: none; stroke-dasharray: 2,3.3; stroke-dashoffset: 0; stroke: #d62728; stroke-width: 2"/>
   </g>
   <g id="line2d_50">
    <path d="M 198.908239 140.369373 
L 201.0858 139.459506 
L 203.263361 138.541458 
L 205.440922 137.615291 
L 207.618483 136.681065 
L 209.796044 135.738844 
L 211.973605 134.788689 
L 214.151166 133.830662 
L 216.328727 132.864825 
L 218.506288 131.891241 
L 220.683849 130.909972 
L 222.86141 129.921081 
L 225.038971 128.924629 
L 227.216532 127.920679 
L 229.394093 126.909294 
L 231.571654 125.890536 
L 233.749215 124.864468 
L 235.926775 123.831152 
L 238.104336 122.790651 
L 240.281897 121.743028 
L 242.459458 120.688345 
L 244.637019 119.626664 
L 246.81458 118.558047 
L 248.992141 117.482559 
L 251.169702 116.400259 
L 253.347263 115.311212 
L 255.524824 114.21548 
L 257.702385 113.113123 
L 259.879946 112.004206 
L 262.057507 110.888789 
L 264.235068 109.766935 
L 266.412629 108.638705 
L 268.59019 107.504162 
L 270.767751 106.363368 
L 272.945312 105.216382 
L 275.122873 104.063269 
L 277.300434 102.904087 
L 279.477995 101.7389 
L 281.655556 100.567768 
L 283.833117 99.390752 
L 286.010678 98.207913 
L 288.188239 97.019313 
L 290.3658 95.82501 
L 292.543361 94.625067 
L 294.720922 93.419543 
L 296.898483 92.208499 
L 299.076044 90.991995 
L 301.253605 89.770091 
L 303.431166 88.542846 
L 305.608727 87.310321 
L 307.786288 86.072575 
L 309.963849 84.829666 
L 312.14141 83.581656 
L 314.318971 82.328602 
L 316.496532 81.070563 
L 318.674093 79.807598 
L 320.851654 78.539767 
L 323.029215 77.267126 
L 325.206775 75.989735 
L 327.384336 74.707652 
L 329.561897 73.420935 
L 331.739458 72.129641 
L 333.917019 70.833829 
L 336.09458 69.533555 
L 338.272141 68.228877 
L 340.449702 66.919853 
L 342.627263 65.606539 
L 344.804824 64.288993 
L 346.982385 62.967271 
L 349.159946 61.641429 
" clip-path="url(#p1e032b020a)" style="fill: none; stroke: #d62728; stroke-width: 2; stroke-linecap: square"/>
   </g>
   <g id="patch_4">
    <path d="M 33.169688 351.179062 
L 33.169688 18.539062 
" style="fill: none; stroke: #000000; stroke-width: 0.8; stroke-linejoin: miter; stroke-linecap: square"/>
   </g>
   <g id="patch_5">
    <path d="M 479.569687 351.179062 
L 479.569687 18.539062 
" style="fill: none; stroke: #000000; stroke-width: 0.8; stroke-linejoin: miter; stroke-linecap: square"/>
   </g>
   <g id="patch_6">
    <path d="M 33.169688 351.179062 
L 479.569687 351.179062 
" style="fill: none; stroke: #000000; stroke-width: 0.8; stroke-linejoin: miter; stroke-linecap: square"/>
   </g>
   <g id="patch_7">
    <path d="M 33.169688 18.539062 
L 479.569687 18.539062 
" style="fill: none; stroke: #000000; stroke-width: 0.8; stroke-linejoin: miter; stroke-linecap: square"/>
   </g>
   <g id="legend_1">
    <g id="patch_8">
     <path d="M 84.428672 16.039062 
L 428.310703 16.039062 
Q 429.310703 16.039062 429.310703 15.039062 
L 429.310703 8.2 
Q 429.310703 7.2 428.310703 7.2 
L 84.428672 7.2 
Q 83.428672 7.2 83.428672 8.2 
L 83.428672 15.039062 
Q 83.428672 16.039062 84.428672 16.039062 
z
" style="fill: #ffffff; opacity: 0.8; stroke: #cccccc; stroke-linejoin: miter"/>
    </g>
    <g id="line2d_51">
     <path d="M 85.428672 11.249219 
L 90.428672 11.249219 
L 95.428672 11.249219 
" style="fill: none; stroke-dasharray: 9.6,2.4,1.5,2.4; stroke-dashoffset: 0; stroke: #ff0000; stroke-opacity: 0.5; stroke-width: 1.5"/>
    </g>
    <g id="text_23">
     <!-- Sun -->
     <g transform="translate(99.428672 12.999219) scale(0.05 -0.05)">
      <defs>
       <path id="DejaVuSans-53" d="M 3425 4513 
L 3425 3897 
Q 3066 4069 2747 4153 
Q 2428 4238 2131 4238 
Q 1616 4238 1336 4038 
Q 1056 3838 1056 3469 
Q 1056 3159 1242 3001 
Q 1428 2844 1947 2747 
L 2328 2669 
Q 3034 2534 3370 2195 
Q 3706 1856 3706 1288 
Q 3706 609 3251 259 
Q 2797 -91 1919 -91 
Q 1588 -91 1214 -16 
Q 841 59 441 206 
L 441 856 
Q 825 641 1194 531 
Q 1563 422 1919 422 
Q 2459 422 2753 634 
Q 3047 847 3047 1241 
Q 3047 1584 2836 1778 
Q 2625 1972 2144 2069 
L 1759 2144 
Q 1053 2284 737 2584 
Q 422 2884 422 3419 
Q 422 4038 858 4394 
Q 1294 4750 2059 4750 
Q 2388 4750 2728 4690 
Q 3069 4631 3425 4513 
z
" transform="scale(0.015625)"/>
       <path id="DejaVuSans-75" d="M 544 1381 
L 544 3500 
L 1119 3500 
L 1119 1403 
Q 1119 906 1312 657 
Q 1506 409 1894 409 
Q 2359 409 2629 706 
Q 2900 1003 2900 1516 
L 2900 3500 
L 3475 3500 
L 3475 0 
L 2900 0 
L 2900 538 
Q 2691 219 2414 64 
Q 2138 -91 1772 -91 
Q 1169 -91 856 284 
Q 544 659 544 1381 
z
M 1991 3584 
L 1991 3584 
z
" transform="scale(0.015625)"/>
      </defs>
      <use xlink:href="#DejaVuSans-53"/>
      <use xlink:href="#DejaVuSans-75" x="63.476562"/>
      <use xlink:href="#DejaVuSans-6e" x="126.855469"/>
     </g>
    </g>
    <g id="line2d_52">
     <path d="M 118.940391 11.249219 
L 123.940391 11.249219 
L 128.940391 11.249219 
" style="fill: none; stroke-dasharray: 9.6,2.4,1.5,2.4; stroke-dashoffset: 0; stroke: #0000ff; stroke-opacity: 0.5; stroke-width: 1.5"/>
    </g>
    <g id="text_24">
     <!-- Moon -->
     <g transform="translate(132.940391 12.999219) scale(0.05 -0.05)">
      <defs>
       <path id="DejaVuSans-4d" d="M 628 4666 
L 1569 4666 
L 2759 1491 
L 3956 4666 
L 4897 4666 
L 4897 0 
L 4281 0 
L 4281 4097 
L 3078 897 
L 2444 897 
L 1241 4097 
L 1241 0 
L 628 0 
L 628 4666 
z
" transform="scale(0.015625)"/>
      </defs>
      <use xlink:href="#DejaVuSans-4d"/>
      <use xlink:href="#DejaVuSans-6f" x="86.279297"/>
      <use xlink:href="#DejaVuSans-6f" x="147.460938"/>
      <use xlink:href="#DejaVuSans-6e" x="208.642578"/>
     </g>
    </g>
    <g id="line2d_53">
     <path d="M 156.541953 11.249219 
L 161.541953 11.249219 
L 166.541953 11.249219 
" style="fill: none; stroke: #1f77b4; stroke-width: 2; stroke-linecap: square"/>
    </g>
    <g id="text_25">
     <!-- TIC 307734818.01 -->
     <g transform="translate(170.541953 12.999219) scale(0.05 -0.05)">
      <defs>
       <path id="DejaVuSans-49" d="M 628 4666 
L 1259 4666 
L 1259 0 
L 628 0 
L 628 4666 
z
" transform="scale(0.015625)"/>
       <path id="DejaVuSans-2e" d="M 684 794 
L 1344 794 
L 1344 0 
L 684 0 
L 684 794 
z
" transform="scale(0.015625)"/>
      </defs>
      <use xlink:href="#DejaVuSans-54"/>
      <use xlink:href="#DejaVuSans-49" x="61.083984"/>
      <use xlink:href="#DejaVuSans-43" x="90.576172"/>
      <use xlink:href="#DejaVuSans-20" x="160.400391"/>
      <use xlink:href="#DejaVuSans-33" x="192.1875"/>
      <use xlink:href="#DejaVuSans-30" x="255.810547"/>
      <use xlink:href="#DejaVuSans-37" x="319.433594"/>
      <use xlink:href="#DejaVuSans-37" x="383.056641"/>
      <use xlink:href="#DejaVuSans-33" x="446.679688"/>
      <use xlink:href="#DejaVuSans-34" x="510.302734"/>
      <use xlink:href="#DejaVuSans-38" x="573.925781"/>
      <use xlink:href="#DejaVuSans-31" x="637.548828"/>
      <use xlink:href="#DejaVuSans-38" x="701.171875"/>
      <use xlink:href="#DejaVuSans-2e" x="764.794922"/>
      <use xlink:href="#DejaVuSans-30" x="796.582031"/>
      <use xlink:href="#DejaVuSans-31" x="860.205078"/>
     </g>
    </g>
    <g id="line2d_54">
     <path d="M 226.734141 11.249219 
L 231.734141 11.249219 
L 236.734141 11.249219 
" style="fill: none; stroke: #ff7f0e; stroke-width: 2; stroke-linecap: square"/>
    </g>
    <g id="text_26">
     <!-- TIC 103096524.01 -->
     <g transform="translate(240.734141 12.999219) scale(0.05 -0.05)">
      <use xlink:href="#DejaVuSans-54"/>
      <use xlink:href="#DejaVuSans-49" x="61.083984"/>
      <use xlink:href="#DejaVuSans-43" x="90.576172"/>
      <use xlink:href="#DejaVuSans-20" x="160.400391"/>
      <use xlink:href="#DejaVuSans-31" x="192.1875"/>
      <use xlink:href="#DejaVuSans-30" x="255.810547"/>
      <use xlink:href="#DejaVuSans-33" x="319.433594"/>
      <use xlink:href="#DejaVuSans-30" x="383.056641"/>
      <use xlink:href="#DejaVuSans-39" x="446.679688"/>
      <use xlink:href="#DejaVuSans-36" x="510.302734"/>
      <use xlink:href="#DejaVuSans-35" x="573.925781"/>
      <use xlink:href="#DejaVuSans-32" x="637.548828"/>
      <use xlink:href="#DejaVuSans-34" x="701.171875"/>
      <use xlink:href="#DejaVuSans-2e" x="764.794922"/>
      <use xlink:href="#DejaVuSans-30" x="796.582031"/>
      <use xlink:href="#DejaVuSans-31" x="860.205078"/>
     </g>
    </g>
    <g id="line2d_55">
     <path d="M 296.926328 11.249219 
L 301.926328 11.249219 
L 306.926328 11.249219 
" style="fill: none; stroke: #2ca02c; stroke-width: 2; stroke-linecap: square"/>
    </g>
    <g id="text_27">
     <!-- TIC 321861405.01 -->
     <g transform="translate(310.926328 12.999219) scale(0.05 -0.05)">
      <use xlink:href="#DejaVuSans-54"/>
      <use xlink:href="#DejaVuSans-49" x="61.083984"/>
      <use xlink:href="#DejaVuSans-43" x="90.576172"/>
      <use xlink:href="#DejaVuSans-20" x="160.400391"/>
      <use xlink:href="#DejaVuSans-33" x="192.1875"/>
      <use xlink:href="#DejaVuSans-32" x="255.810547"/>
      <use xlink:href="#DejaVuSans-31" x="319.433594"/>
      <use xlink:href="#DejaVuSans-38" x="383.056641"/>
      <use xlink:href="#DejaVuSans-36" x="446.679688"/>
      <use xlink:href="#DejaVuSans-31" x="510.302734"/>
      <use xlink:href="#DejaVuSans-34" x="573.925781"/>
      <use xlink:href="#DejaVuSans-30" x="637.548828"/>
      <use xlink:href="#DejaVuSans-35" x="701.171875"/>
      <use xlink:href="#DejaVuSans-2e" x="764.794922"/>
      <use xlink:href="#DejaVuSans-30" x="796.582031"/>
      <use xlink:href="#DejaVuSans-31" x="860.205078"/>
     </g>
    </g>
    <g id="line2d_56">
     <path d="M 367.118516 11.249219 
L 372.118516 11.249219 
L 377.118516 11.249219 
" style="fill: none; stroke: #d62728; stroke-width: 2; stroke-linecap: square"/>
    </g>
    <g id="text_28">
     <!-- TIC 267810289.01 -->
     <g transform="translate(381.118516 12.999219) scale(0.05 -0.05)">
      <use xlink:href="#DejaVuSans-54"/>
      <use xlink:href="#DejaVuSans-49" x="61.083984"/>
      <use xlink:href="#DejaVuSans-43" x="90.576172"/>
      <use xlink:href="#DejaVuSans-20" x="160.400391"/>
      <use xlink:href="#DejaVuSans-32" x="192.1875"/>
      <use xlink:href="#DejaVuSans-36" x="255.810547"/>
      <use xlink:href="#DejaVuSans-37" x="319.433594"/>
      <use xlink:href="#DejaVuSans-38" x="383.056641"/>
      <use xlink:href="#DejaVuSans-31" x="446.679688"/>
      <use xlink:href="#DejaVuSans-30" x="510.302734"/>
      <use xlink:href="#DejaVuSans-32" x="573.925781"/>
      <use xlink:href="#DejaVuSans-38" x="637.548828"/>
      <use xlink:href="#DejaVuSans-39" x="701.171875"/>
      <use xlink:href="#DejaVuSans-2e" x="764.794922"/>
      <use xlink:href="#DejaVuSans-30" x="796.582031"/>
      <use xlink:href="#DejaVuSans-31" x="860.205078"/>
     </g>
    </g>
   </g>
  </g>
 </g>
 <defs>
  <clipPath id="p1e032b020a">
   <rect x="33.169688" y="18.539062" width="446.4" height="332.64"/>
  </clipPath>
 </defs>
</svg>
